<svg xmlns="http://www.w3.org/2000/svg" xmlns:xlink="http://www.w3.org/1999/xlink" fill="none" version="1.1" width="48" height="48" viewBox="0 0 48 48"><defs><clipPath id="master_svg0_0_413"><rect x="0" y="0" width="48" height="48" rx="0"/></clipPath></defs><g clip-path="url(#master_svg0_0_413)"><g><path d="M19.73153671875,9.99999C18.96173671875,8.66667,17.037236718750002,8.66667,16.267436718749998,9.99999C16.267436718749998,9.99999,2.41106971875,33.9999,2.41106971875,33.9999C1.64126971875,35.3334,2.60351971875,36.9999,4.14311671875,36.9999C4.14311671875,36.9999,17.94823671875,36.9999,17.94823671875,36.9999C17.39103671875,35.4399,17.46623671875,33.6363,18.41093671875,32.0001C18.41093671875,32.0001,25.42213671875,19.856299999999997,25.42213671875,19.856299999999997C25.42213671875,19.856299999999997,19.73153671875,9.99999,19.73153671875,9.99999C19.73153671875,9.99999,19.73153671875,9.99999,19.73153671875,9.99999Z" fill="#3370FC" fill-opacity="1"/></g><g><path d="M32.26828046875,15.99999C33.038080468749996,14.66667,34.96258046875,14.66667,35.73238046875,15.99999C35.73238046875,15.99999,46.12468046875,33.9999,46.12468046875,33.9999C46.894480468750004,35.3334,45.93208046875,36.9999,44.39248046875,36.9999C44.39248046875,36.9999,23.60796046875,36.9999,23.60796046875,36.9999C22.06836346875,36.9999,21.10611346875,35.3334,21.87591346875,33.9999C21.87591346875,33.9999,32.26828046875,15.99999,32.26828046875,15.99999C32.26828046875,15.99999,32.26828046875,15.99999,32.26828046875,15.99999Z" fill="#04D6BA" fill-opacity="1"/></g></g></svg>