<svg xmlns="http://www.w3.org/2000/svg" xmlns:xlink="http://www.w3.org/1999/xlink" fill="none" version="1.1" width="48" height="48" viewBox="0 0 48 48"><defs><clipPath id="master_svg0_2_6"><rect x="0" y="0" width="48" height="48" rx="0"/></clipPath><mask id="master_svg1_2_8" style="mask-type:alpha" maskUnits="objectBoundingBox"><g><g><path d="M-166.8638916015625,-70.4378662109375L105.79882839843748,-70.4378662109375L105.79882839843748,82.93492378906251L-166.8638916015625,82.93492378906251L-166.8638916015625,-70.4378662109375Z" fill="#000000" fill-opacity="1" style="mix-blend-mode:passthrough"/></g></g></mask><radialGradient cx="0" cy="0" r="1" gradientUnits="userSpaceOnUse" id="master_svg2_2_945" gradientTransform="translate(24.071102142333984 23.928997039794922) rotate(90) scale(23.786983489990234 23.786983489990234)"><stop offset="0%" stop-color="#3660F7" stop-opacity="0"/><stop offset="100%" stop-color="#3660F7" stop-opacity="0.6100000143051147"/></radialGradient><linearGradient x1="0.5" y1="0" x2="0.5" y2="1" id="master_svg3_2_946"><stop offset="0%" stop-color="#3660F7" stop-opacity="1"/><stop offset="100%" stop-color="#CED9FF" stop-opacity="1"/></linearGradient><linearGradient x1="0.5" y1="0" x2="0.5" y2="1" id="master_svg4_2_946"><stop offset="0%" stop-color="#3660F7" stop-opacity="1"/><stop offset="100%" stop-color="#CED9FF" stop-opacity="1"/></linearGradient><linearGradient x1="0.5" y1="0" x2="0.5" y2="1" id="master_svg5_2_946"><stop offset="0%" stop-color="#3660F7" stop-opacity="1"/><stop offset="100%" stop-color="#CED9FF" stop-opacity="1"/></linearGradient><linearGradient x1="0.5" y1="0" x2="0.5" y2="1" id="master_svg6_2_946"><stop offset="0%" stop-color="#3660F7" stop-opacity="1"/><stop offset="100%" stop-color="#CED9FF" stop-opacity="1"/></linearGradient><linearGradient x1="0.5" y1="0" x2="0.5" y2="1" id="master_svg7_2_946"><stop offset="0%" stop-color="#3660F7" stop-opacity="1"/><stop offset="100%" stop-color="#CED9FF" stop-opacity="1"/></linearGradient><linearGradient x1="0.5" y1="0" x2="0.5" y2="1" id="master_svg8_2_946"><stop offset="0%" stop-color="#3660F7" stop-opacity="1"/><stop offset="100%" stop-color="#CED9FF" stop-opacity="1"/></linearGradient><linearGradient x1="0.5" y1="0" x2="0.5" y2="1" id="master_svg9_2_946"><stop offset="0%" stop-color="#3660F7" stop-opacity="1"/><stop offset="100%" stop-color="#CED9FF" stop-opacity="1"/></linearGradient><linearGradient x1="0.5" y1="0" x2="0.5" y2="1" id="master_svga_2_946"><stop offset="0%" stop-color="#3660F7" stop-opacity="1"/><stop offset="100%" stop-color="#CED9FF" stop-opacity="1"/></linearGradient></defs><g clip-path="url(#master_svg0_2_6)"><g mask="url(#master_svg1_2_8)"><g><g><g><g><path d="M47.85808565234375,23.928996549804687Q47.85808565234375,24.512931549804687,47.82942965234375,25.096164549804687Q47.80078865234375,25.679407549804687,47.74354965234375,26.260532549804687Q47.68630565234375,26.841651549804688,47.60061665234375,27.419267549804687Q47.51494565234375,27.996885549804688,47.40101665234375,28.56960254980469Q47.28710565234375,29.14232254980469,47.14521765234375,29.708757549804687Q47.00332665234375,30.275201549804688,46.83382065234375,30.833991549804686Q46.66431465234375,31.392782549804686,46.46759065234375,31.94258454980469Q46.27087065234375,32.49239354980469,46.04741665234375,33.03188354980469Q45.82394365234375,33.571369549804686,45.57427965234375,34.09924354980469Q45.32461565234375,34.62711354980469,45.04934665234375,35.14209754980469Q44.77407465234375,35.65708954980469,44.47387665234375,36.157943549804685Q44.17366365234375,36.65880954980469,43.84924665234375,37.14433254980469Q43.52483365234375,37.62986354980469,43.17697865234375,38.09888054980469Q42.82912865234375,38.56790954980469,42.45868665234375,39.01929454980469Q42.08824565234375,39.47068454980469,41.69608265234375,39.903350549804685Q41.30393965234375,40.33602554980469,40.89104465234375,40.74893154980469Q40.47813065234375,41.16183454980469,40.04545565234375,41.553977549804685Q39.61278165234375,41.94613254980469,39.16139965234375,42.31658154980469Q38.71002165234375,42.68703054980469,38.24097865234375,43.034873549804686Q37.77196865234375,43.38272854980469,37.28643765234375,43.70715354980469Q36.80090665234375,44.03156654980469,36.30004865234375,44.331771549804685Q35.79919465234375,44.63198054980469,35.28421065234375,44.90724154980469Q34.76921065234375,45.18251054980469,34.24134865234375,45.43216754980469Q33.71346665234375,45.68183854980469,33.17398865234375,45.905300549804686Q32.63449065234375,46.12876554980469,32.08469765234375,46.32548554980469Q31.53488765234375,46.522209549804685,30.97609665234375,46.69172254980469Q30.41730665234375,46.861228549804686,29.85087165234375,47.003120549804684Q29.28441965234375,47.145000549804685,28.71170765234375,47.25892254980469Q28.13899765234375,47.372840549804685,27.56138265234375,47.45852254980469Q26.98376465234375,47.544200549804685,26.40262965234375,47.60144454980469Q25.82151265234375,47.65867654980469,25.23827765234375,47.68733254980469Q24.65504465234375,47.71598054980469,24.07110165234375,47.71598054980469Q23.48715765234375,47.71598054980469,22.90392465234375,47.68733254980469Q22.32069065234375,47.65867654980469,21.73957265234375,47.60144454980469Q21.15843765234375,47.544200549804685,20.58081965234375,47.45852254980469Q20.00320465234375,47.372840549804685,19.43049465234375,47.25891154980469Q18.85778265234375,47.145000549804685,18.29133065234375,47.00311254980469Q17.72489565234375,46.861228549804686,17.16610565234375,46.69172254980469Q16.60731465234375,46.522209549804685,16.057504652343752,46.32548554980469Q15.50771165234375,46.12876554980469,14.96821465234375,45.905300549804686Q14.42873665234375,45.68183854980469,13.90085565234375,45.43216754980469Q13.37297465234375,45.18251054980469,12.85799165234375,44.90724154980469Q12.34300665234375,44.63198054980469,11.84215165234375,44.331771549804685Q11.34127865234375,44.03156654980469,10.85576665234375,43.70715354980469Q10.37023565234375,43.38272854980469,9.90120795234375,43.034873549804686Q9.43218045234375,42.68703054980469,8.98080065234375,42.31658154980469Q8.52940365234375,41.94613254980469,8.096745952343749,41.553977549804685Q7.66407105234375,41.16183454980469,7.25115825234375,40.74893154980469Q6.83826305234375,40.33602554980469,6.44610115234375,39.903350549804685Q6.05395605234375,39.47068454980469,5.68351555234375,39.01929454980469Q5.31307455234375,38.56790954980469,4.96522185234375,38.09888054980469Q4.61736915234375,37.62986354980469,4.29295395234375,37.14433254980469Q3.96852135234375,36.65880954980469,3.66832375234375,36.157943549804685Q3.36812615234375,35.65708954980469,3.09285685234375,35.14209754980469Q2.81758765234375,34.62711354980469,2.56792285234375,34.09924354980469Q2.31825785234375,33.571369549804686,2.0947868523437503,33.03188354980469Q1.87133325234375,32.49239354980469,1.67461075234375,31.942592549804687Q1.47788835234375,31.392782549804686,1.30838255234375,30.833991549804686Q1.13887667234375,30.275201549804688,0.99698615234375,29.708757549804687Q0.85509568234375,29.14232254980469,0.74118459234375,28.56960254980469Q0.62725612234375,27.996885549804688,0.54158446234375,27.419267549804687Q0.45589542234375,26.841651549804688,0.39865383234375,26.260532549804687Q0.34142958034375,25.679407549804687,0.31277411634375,25.096164549804687Q0.28411865234375,24.512931549804687,0.28411865234375,23.928996549804687Q0.28411865234375,23.34506054980469,0.31277411634375,22.76182754980469Q0.34142958034375,22.178585549804687,0.39865383234375,21.597467549804687Q0.45589542234375,21.01634054980469,0.54158446234375,20.438724549804686Q0.62725612234375,19.86110654980469,0.74118459234375,19.288389549804688Q0.85509568234375,18.715669549804687,0.99698615234375,18.14923454980469Q1.13887667234375,17.582790549804688,1.30838255234375,17.024000549804686Q1.47788835234375,16.46520054980469,1.67461075234375,15.915399549804688Q1.87133325234375,15.365597549804688,2.0947868523437503,14.826109549804688Q2.31825785234375,14.286622549804688,2.56792285234375,13.758750549804688Q2.81758765234375,13.230877549804687,3.09285685234375,12.715886549804688Q3.36812615234375,12.200901549804687,3.66832375234375,11.700046549804688Q3.96852135234375,11.199183549804687,4.29295395234375,10.713652549804687Q4.61736915234375,10.228130549804687,4.96522185234375,9.759102849804687Q5.31307455234375,9.290083849804688,5.68351555234375,8.838695549804687Q6.05395605234375,8.387307149804688,6.44610115234375,7.954632249804687Q6.83826305234375,7.521965949804687,7.25115825234375,7.109061749804687Q7.66407105234375,6.696149349804688,8.096745952343749,6.304004649804687Q8.52940365234375,5.911859949804687,8.98080065234375,5.541410449804688Q9.43218045234375,5.170960949804687,9.90120795234375,4.823108149804687Q10.37023565234375,4.475264049804688,10.85576665234375,4.150840249804688Q11.34127865234375,3.8264250498046875,11.84215165234375,3.5262186498046875Q12.34300665234375,3.2260124498046876,12.85799165234375,2.9507517498046876Q13.37297465234375,2.6754825498046877,13.90085565234375,2.4258177498046876Q14.42873665234375,2.1761527498046873,14.96821465234375,1.9526904498046875Q15.50771165234375,1.7292281498046875,16.057504652343752,1.5325056498046874Q16.60731465234375,1.3357832498046875,17.16610565234375,1.1662729498046875Q17.72489565234375,0.9967628698046875,18.29133065234375,0.8548810498046875Q18.85778265234375,0.7129949298046875,19.43049465234375,0.5990751398046875Q20.00320465234375,0.4851510198046875,20.58081965234375,0.3994706898046875Q21.15843765234375,0.3137903198046875,21.73957265234375,0.2565530598046875Q22.32069065234375,0.19932014480468752,22.90392465234375,0.1706646808046875Q23.48715765234375,0.1420135498046875,24.07110165234375,0.1420135498046875Q24.65504465234375,0.1420135498046875,25.23827765234375,0.1706646808046875Q25.82151265234375,0.19932014480468752,26.40262965234375,0.2565530598046875Q26.98376465234375,0.3137903198046875,27.56138265234375,0.3994706898046875Q28.13899765234375,0.4851510198046875,28.71170765234375,0.5990751398046875Q29.28441965234375,0.7129949298046875,29.85087165234375,0.8548810498046875Q30.41730665234375,0.9967628698046875,30.97609665234375,1.1662729498046875Q31.53488765234375,1.3357832498046875,32.08469765234375,1.5325056498046874Q32.63449065234375,1.7292281498046875,33.17398865234375,1.9526904498046875Q33.71346665234375,2.1761527498046873,34.24134865234375,2.4258177498046876Q34.76921065234375,2.6754825498046877,35.28421065234375,2.9507517498046876Q35.79919465234375,3.2260124498046876,36.30004865234375,3.5262186498046875Q36.80090665234375,3.8264250498046875,37.28643765234375,4.150840249804688Q37.77196865234375,4.475264049804688,38.24097865234375,4.823108149804687Q38.71002165234375,5.170960949804687,39.16139965234375,5.541410449804688Q39.61278165234375,5.911859949804687,40.04545565234375,6.304004649804687Q40.47813065234375,6.696149349804688,40.89104465234375,7.109061749804687Q41.30393965234375,7.521965949804687,41.69608265234375,7.954632249804687Q42.08824565234375,8.387307149804688,42.45868665234375,8.838695549804687Q42.82912865234375,9.290083849804688,43.17697865234375,9.759102849804687Q43.52483365234375,10.228130549804687,43.84924665234375,10.713652549804687Q44.17366365234375,11.199183549804687,44.47387665234375,11.700037549804687Q44.77409365234375,12.200901549804687,45.04934665234375,12.715886549804688Q45.32461565234375,13.230877549804687,45.57427965234375,13.758750549804688Q45.82394365234375,14.286622549804688,46.04741665234375,14.826109549804688Q46.27087065234375,15.365597549804688,46.46759065234375,15.915399549804688Q46.66431465234375,16.46520054980469,46.83382065234375,17.024000549804686Q47.00332665234375,17.582790549804688,47.14521765234375,18.149225549804687Q47.28710565234375,18.715669549804687,47.40103565234375,19.288389549804688Q47.51494565234375,19.86110654980469,47.60061665234375,20.438724549804686Q47.68630565234375,21.01634054980469,47.74354965234375,21.597467549804687Q47.80078865234375,22.178585549804687,47.82942965234375,22.76182754980469Q47.85808565234375,23.34506054980469,47.85808565234375,23.928996549804687ZM46.43796565234375,23.928996549804687Q46.43796565234375,23.379922549804686,46.41102565234375,22.831506549804686Q46.38408665234375,22.28309254980469,46.33026165234375,21.736661549804687Q46.27645065234375,21.190233549804688,46.19587665234375,20.647096549804687Q46.11531865234375,20.10395954980469,46.00818665234375,19.565435549804686Q45.90106965234375,19.026908549804688,45.76765865234375,18.49428754980469Q45.63424265234375,17.961673549804686,45.47486065234375,17.436237549804687Q45.31546065234375,16.91080854980469,45.13047365234375,16.393821549804688Q44.94550665234375,15.876845549804688,44.73538165234375,15.369566549804688Q44.52526065234375,14.862289549804688,44.29050465234375,14.365932549804688Q44.05574765234375,13.869566549804688,43.79691265234375,13.385328549804688Q43.53807865234375,12.901088549804687,43.25578665234375,12.430128549804687Q42.97351465234375,11.959168549804687,42.66846465234375,11.502631549804688Q42.36341065234375,11.046093549804688,42.03632765234375,10.605071549804688Q41.70925865234375,10.164050549804687,41.36091965234375,9.739609749804687Q41.01259965234375,9.315168349804688,40.64385965234375,8.908331849804688Q40.27511565234375,8.501486749804688,39.88685565234375,8.113234049804689Q39.49859265234375,7.7249808498046875,39.09176665234375,7.356239349804688Q38.68492165234375,6.987505949804688,38.26047865234375,6.639176349804687Q37.83604065234375,6.290846849804687,37.39502765234375,5.963762249804687Q36.95399465234375,5.636677249804688,36.49746665234375,5.3316254498046876Q36.04092065234375,5.026574149804688,35.56996965234375,4.744292749804687Q35.09899865234375,4.462011349804688,34.61476865234375,4.203184649804688Q34.13051965234375,3.9443492498046875,33.63415565234375,3.7095928498046873Q33.13780965234375,3.4748277498046876,32.63051965234375,3.2647051498046875Q32.12325265234375,3.0545823498046873,31.60627565234375,2.8696045498046874Q31.08929865234375,2.6846270498046874,30.56385965234375,2.5252449498046876Q30.03842365234375,2.3658545498046877,29.50580965234375,2.2324366498046877Q28.97317865234375,2.0990231498046876,28.43465465234375,1.9919031498046875Q27.89612965234375,1.8847832498046875,27.35301065234375,1.8042211498046874Q26.80987365234375,1.7236547498046875,26.26344265234375,1.6698325498046875Q25.71701465234375,1.6160147498046875,25.16859065234375,1.5890754498046875Q24.62018365234375,1.5621318498046874,24.07110165234375,1.5621318498046874Q23.52203565234375,1.5621318498046874,22.97361165234375,1.5890754498046875Q22.42520665234375,1.6160147498046875,21.87877665234375,1.6698325498046875Q21.33232865234375,1.7236547498046875,20.78919265234375,1.8042211498046874Q20.24607265234375,1.8847832498046875,19.70754765234375,1.9919031498046875Q19.16902365234375,2.0990231498046876,18.63639265234375,2.2324366498046877Q18.10377865234375,2.3658545498046877,17.57834265234375,2.5252449498046876Q17.05290365234375,2.6846270498046874,16.53592665234375,2.8696045498046874Q16.01895065234375,3.0545823498046873,15.51168065234375,3.2647051498046875Q15.00439465234375,3.4748277498046876,14.50802865234375,3.7095928498046873Q14.01168065234375,3.9443492498046875,13.52743365234375,4.203184649804688Q13.04318565234375,4.462011349804688,12.57223365234375,4.744292749804687Q12.10128165234375,5.026574149804688,11.64473665234375,5.3316254498046876Q11.18819065234375,5.636677249804688,10.74717665234375,5.963762249804687Q10.30614665234375,6.290846849804687,9.88170525234375,6.639176349804687Q9.45726485234375,6.987505949804688,9.05043695234375,7.356239349804688Q8.64359185234375,7.7249808498046875,8.25534775234375,8.113234049804689Q7.86708595234375,8.501486749804688,7.49834445234375,8.908331849804688Q7.12960245234375,9.315168349804688,6.78128145234375,9.739609749804687Q6.43294335234375,10.164050549804687,6.10585835234375,10.605071549804688Q5.77879095234375,11.046093549804688,5.47373965234375,11.502631549804688Q5.16868785234375,11.959168549804687,4.88639785234375,12.430128549804687Q4.60412505234375,12.901088549804687,4.34528975234375,13.385328549804688Q4.08645435234375,13.869566549804688,3.85169795234375,14.365923549804688Q3.61694165234375,14.862289549804688,3.40681885234375,15.369566549804688Q3.19669605234375,15.876845549804688,3.01170965234375,16.393821549804688Q2.82674075234375,16.91080854980469,2.66734145234375,17.436237549804687Q2.50795965234375,17.961673549804686,2.37454605234375,18.49428754980469Q2.24113265234375,19.026908549804688,2.13401695234375,19.565435549804686Q2.0268840523437497,20.10395954980469,1.94632625234375,20.647096549804687Q1.86575125234375,21.190233549804688,1.81194195234375,21.736661549804687Q1.75811555234375,22.28309254980469,1.73117625234375,22.831506549804686Q1.70423695234375,23.379922549804686,1.70423695234375,23.928996549804687Q1.70423695234375,24.478069549804687,1.73117625234375,25.026485549804686Q1.75811555234375,25.574899549804687,1.81194195234375,26.12133054980469Q1.86575125234375,26.667760549804687,1.94632625234375,27.210895549804686Q2.0268840523437497,27.754024549804686,2.13401695234375,28.292549549804686Q2.24113265234375,28.83107354980469,2.37454605234375,29.363697549804687Q2.50795965234375,29.896318549804686,2.66734145234375,30.42175454980469Q2.82674075234375,30.947183549804688,3.01170965234375,31.46416054980469Q3.19669605234375,31.981138549804687,3.40681885234375,32.48841454980469Q3.61694165234375,32.995704549804685,3.85169795234375,33.492057549804684Q4.08645435234375,33.98841454980469,4.34528975234375,34.47265654980469Q4.60412505234375,34.95690154980469,4.88639785234375,35.42785654980469Q5.16868785234375,35.89881554980469,5.47373965234375,36.35536154980469Q5.77879095234375,36.81189754980469,6.10585835234375,37.25292254980469Q6.43294335234375,37.69394254980469,6.78128145234375,38.11838154980469Q7.12960245234375,38.54282354980469,7.49834445234375,38.949668549804684Q7.86708595234375,39.356506549804685,8.25534775234375,39.744758549804686Q8.64359185234375,40.13301054980469,9.05043695234375,40.50175454980469Q9.45726485234375,40.870487549804686,9.88170525234375,41.21881454980469Q10.30614665234375,41.56714654980469,10.74717665234375,41.894229549804685Q11.18819065234375,42.22131354980469,11.64473665234375,42.52635954980469Q12.10128165234375,42.83140954980469,12.57223365234375,43.11368954980469Q13.04318565234375,43.39597354980469,13.52743365234375,43.65480754980469Q14.01168065234375,43.91363554980469,14.50802865234375,44.14839954980469Q15.00439465234375,44.38315554980469,15.51168065234375,44.593276549804685Q16.01895065234375,44.80340154980469,16.53592665234375,44.98838054980469Q17.05290365234375,45.17335554980469,17.57834265234375,45.332748549804684Q18.10377865234375,45.49213754980469,18.63639265234375,45.625553549804685Q19.16902365234375,45.75896454980469,19.70754765234375,45.86608154980469Q20.24607265234375,45.97320554980469,20.78919265234375,46.05377954980469Q21.33232865234375,46.13433854980469,21.87877665234375,46.188163549804685Q22.42520665234375,46.24197354980469,22.97361165234375,46.26891354980469Q23.52203565234375,46.29586054980469,24.07110165234375,46.29586054980469Q24.62018365234375,46.29586054980469,25.16859065234375,46.26891354980469Q25.71699665234375,46.24197354980469,26.26344265234375,46.188163549804685Q26.80987365234375,46.13433854980469,27.35299265234375,46.05377954980469Q27.89612965234375,45.97320554980469,28.43465465234375,45.86608154980469Q28.97317865234375,45.75896454980469,29.50580965234375,45.625553549804685Q30.03842365234375,45.49213754980469,30.56385965234375,45.33275554980469Q31.08929865234375,45.17335554980469,31.60627565234375,44.98838054980469Q32.12325265234375,44.80340154980469,32.63051965234375,44.593276549804685Q33.13780965234375,44.38315554980469,33.63415565234375,44.14839954980469Q34.13051965234375,43.91363554980469,34.61476865234375,43.65480754980469Q35.09899865234375,43.39597354980469,35.56996965234375,43.11368954980469Q36.04092065234375,42.83140954980469,36.49746665234375,42.52635954980469Q36.95399465234375,42.22130554980469,37.39502765234375,41.894229549804685Q37.83604065234375,41.56714654980469,38.26049765234375,41.21881454980469Q38.68493665234375,40.870487549804686,39.09176665234375,40.50174354980469Q39.49861165234375,40.13301054980469,39.88685565234375,39.744750549804685Q40.27511565234375,39.35649454980469,40.64385965234375,38.94966154980469Q41.01259965234375,38.54282354980469,41.36091965234375,38.11838154980469Q41.70925865234375,37.693935549804685,42.03634265234375,37.25291054980469Q42.36341065234375,36.81188954980469,42.66846465234375,36.35535454980469Q42.97351465234375,35.89881554980469,43.25578665234375,35.42785654980469Q43.53807865234375,34.95690154980469,43.79691265234375,34.47265654980469Q44.05574765234375,33.98841454980469,44.29050465234375,33.492057549804684Q44.52526065234375,32.995704549804685,44.73538165234375,32.48841454980469Q44.94550665234375,31.981138549804687,45.13047365234375,31.46416054980469Q45.31546065234375,30.947183549804688,45.47486065234375,30.42175454980469Q45.63424265234375,29.896318549804686,45.76765865234375,29.363704549804687Q45.90106965234375,28.83108354980469,46.00818665234375,28.292556549804686Q46.11531865234375,27.754024549804686,46.19587665234375,27.210895549804686Q46.27645065234375,26.667760549804687,46.33026165234375,26.12133054980469Q46.38408665234375,25.574899549804687,46.41102565234375,25.026485549804686Q46.43796565234375,24.478069549804687,46.43796565234375,23.928996549804687Z" fill="url(#master_svg2_2_945)" fill-opacity="1" style="mix-blend-mode:passthrough"/></g></g><g><g><path d="M8.17235926328125,30.461532592773438Q2.56289176328125,35.50295259277344,7.67531796328125,41.254431592773436C14.70294476328125,47.75663159277344,20.88004386328125,47.57618759277344,23.05981786328125,47.51251459277344C23.23662186328125,47.50734759277344,23.38711186328125,47.50295259277344,23.50963786328125,47.50295259277344Q25.14277486328125,47.50295259277344,29.54514086328125,46.08283459277344Q20.59839486328125,46.792894592773436,17.68715186328125,40.97040859277344Q15.84099886328125,36.35502389277344,13.49780276328125,33.869816792773435Q11.15460776328125,31.384609522773438,8.17235926328125,30.461532592773438Z" fill="url(#master_svg3_2_946)" fill-opacity="1" style="mix-blend-mode:passthrough"/></g></g><g transform="matrix(0.6929677724838257,0.7209685444831848,-0.7209685444831848,0.6929677724838257,13.160289874196224,0.08322330920805143)"><g><path d="M9.417182719091796,15.493011474609375Q3.8077152190917967,20.534431474609374,8.920141419091797,26.285910474609373C15.947768219091797,32.788110474609375,22.1248673190918,32.607666474609374,24.304641319091797,32.54399347460938C24.481445319091797,32.53882647460938,24.631935319091795,32.53443147460938,24.754461319091796,32.53443147460938Q26.387598319091797,32.53443147460938,30.789964319091798,31.114313474609375Q21.843218319091797,31.824373474609374,18.931975319091798,26.001887474609376Q17.085822319091797,21.386502774609376,14.742626219091797,18.901295674609376Q12.399431219091797,16.416088404609376,9.417182719091796,15.493011474609375Z" fill="url(#master_svg4_2_946)" fill-opacity="1" style="mix-blend-mode:passthrough"/></g></g><g transform="matrix(0.06376905739307404,0.9979646801948547,-0.9979646801948547,0.06376905739307404,20.62209942832567,-12.011951190076843)"><g><path d="M19.647800242285157,4.9849700927734375Q14.038332742285156,10.026390092773436,19.150758942285158,15.777869092773438C26.17838574228516,22.280069092773438,32.35548484228516,22.099625092773437,34.53525884228516,22.03595209277344C34.71206284228516,22.03078509277344,34.862552842285154,22.026390092773436,34.985078842285155,22.026390092773436Q36.61821584228515,22.026390092773436,41.020581842285154,20.606272092773438Q32.073835842285156,21.316332092773436,29.162592842285157,15.493846092773438Q27.316439842285156,10.878461392773438,24.973243742285156,8.393254292773438Q22.630048742285155,5.908047022773437,19.647800242285157,4.9849700927734375Z" fill="url(#master_svg5_2_946)" fill-opacity="1" style="mix-blend-mode:passthrough"/></g></g><g transform="matrix(-0.6766230463981628,0.7363295555114746,-0.7363295555114746,-0.6766230463981628,58.963515250864475,-14.567754340090232)"><g><path d="M35.615397903710935,5.663749694824219Q30.00593110371094,10.705169694824217,35.11835670371094,16.456648694824217C42.145982703710935,22.95884869482422,48.32308080371094,22.778404694824218,50.50285480371094,22.71473169482422C50.679658803710936,22.70956469482422,50.83014880371094,22.705169694824217,50.952674803710934,22.705169694824217Q52.58580980371094,22.705169694824217,56.98817680371094,21.28505169482422Q48.04143280371094,21.995111694824217,45.130189803710934,16.17262569482422Q43.28403680371094,11.55724099482422,40.94084170371094,9.07203389482422Q38.59764620371094,6.586826624824218,35.615397903710935,5.663749694824219Z" fill="url(#master_svg6_2_946)" fill-opacity="1" style="mix-blend-mode:passthrough"/></g></g><g transform="matrix(-1,-0.005239923018962145,0.005239923018962145,-1,85.95699507919673,35.78926039149755)"><g><path d="M45.95983484921875,17.781906127929688Q40.35036734921875,22.823326127929686,45.46279354921875,28.574805127929686C52.49042034921875,35.07700512792969,58.66751944921875,34.89656112792969,60.84729344921875,34.83288812792969C61.02409744921875,34.82772112792969,61.17458744921875,34.82332612792969,61.29711344921875,34.82332612792969Q62.93025044921875,34.82332612792969,67.33261644921875,33.40320812792969Q58.38587044921875,34.113268127929686,55.47462744921875,28.29078212792969Q53.62847444921875,23.67539742792969,51.28527834921875,21.190190327929688Q48.94208334921875,18.704983057929688,45.95983484921875,17.781906127929688Z" fill="url(#master_svg7_2_946)" fill-opacity="1" style="mix-blend-mode:passthrough"/></g></g><g transform="matrix(-0.7148018479347229,-0.699346661567688,0.699346661567688,-0.7148018479347229,49.10709704435067,85.45118262837786)"><g><path d="M44.91271570859375,32.711669921875Q39.30324820859375,37.753089921875,44.41567440859375,43.504568921875C51.44330120859375,50.006768921875,57.62040030859375,49.826324921875,59.80017430859375,49.762651921875005C59.97697830859375,49.757484921875005,60.12746830859375,49.753089921875,60.24999430859375,49.753089921875Q61.88313130859375,49.753089921875,66.28549730859375,48.332971921875Q57.33875130859375,49.043031921875,54.42750830859375,43.220545921875Q52.58135530859375,38.605161221875,50.23815920859375,36.119954121875Q47.89496420859375,33.634746851875,44.91271570859375,32.711669921875Z" fill="url(#master_svg8_2_946)" fill-opacity="1" style="mix-blend-mode:passthrough"/></g></g><g transform="matrix(-0.011638090014457703,-0.9999013543128967,0.9999013543128967,-0.011638090014457703,-11.620021831705799,73.85419256476712)"><g><path d="M33.62435481289062,42.67100524902344Q28.014888012890626,47.71242474902344,33.127313612890624,53.46390324902344C40.15493961289062,59.966102249023436,46.332037712890624,59.78565824902344,48.511811712890626,59.72198524902343C48.68861571289062,59.71681824902343,48.83910571289063,59.71242324902344,48.96163171289062,59.71242324902344Q50.594766712890625,59.71242324902344,54.99713371289063,58.29230624902344Q46.05038971289063,59.00236524902344,43.13914671289062,53.17988024902344Q41.29299371289063,48.56449604902344,38.949798612890625,46.079288949023436Q36.606603112890625,43.59408211902344,33.62435481289062,42.67100524902344Z" fill="url(#master_svg9_2_946)" fill-opacity="1" style="mix-blend-mode:passthrough"/></g></g><g transform="matrix(0.6746792793273926,-0.7380690574645996,0.7380690574645996,0.6746792793273926,-26.209740349280764,25.138770184406894)"><g><path d="M18.348048960546876,42.30499267578125Q12.738581460546875,47.34641267578125,17.851007660546877,53.09789167578125C24.878634460546877,59.60009167578125,31.055733560546877,59.41964767578125,33.23550756054688,59.355974675781255C33.412311560546875,59.350807675781255,33.56280156054687,59.34641267578125,33.685327560546874,59.34641267578125Q35.31846456054687,59.34641267578125,39.72083056054687,57.92629467578125Q30.774084560546875,58.63635467578125,27.862841560546876,52.81386867578125Q26.016688560546875,48.19848397578125,23.673492460546875,45.71327687578125Q21.330297460546873,43.22806960578125,18.348048960546876,42.30499267578125Z" fill="url(#master_svga_2_946)" fill-opacity="1" style="mix-blend-mode:passthrough"/></g></g></g></g></g></g></svg>