<svg xmlns="http://www.w3.org/2000/svg" xmlns:xlink="http://www.w3.org/1999/xlink" fill="none" version="1.1" width="16" height="16" viewBox="0 0 16 16"><defs><clipPath id="master_svg0_0_129"><rect x="0" y="0" width="16" height="16" rx="0"/></clipPath></defs><g clip-path="url(#master_svg0_0_129)"><g><path d="M10.5001001222229,5.999989986419678C10.5001001222229,7.380699986419678,9.380800122222901,8.499989986419678,8.0000901222229,8.499989986419678C6.6193801222229,8.499989986419678,5.5000901222229,7.380699986419678,5.5000901222229,5.999989986419678C5.5000901222229,4.619279986419677,6.6193801222229,3.4999899864196777,8.0000901222229,3.4999899864196777C9.380800122222901,3.4999899864196777,10.5001001222229,4.619279986419677,10.5001001222229,5.999989986419678C10.5001001222229,5.999989986419678,10.5001001222229,5.999989986419678,10.5001001222229,5.999989986419678ZM9.5000901222229,5.999989986419678C9.5000901222229,5.171559986419678,8.828520122222901,4.499989986419678,8.0000901222229,4.499989986419678C7.1716601222229,4.499989986419678,6.5000901222229,5.171559986419678,6.5000901222229,5.999989986419678C6.5000901222229,6.828419986419678,7.1716601222229,7.499989986419678,8.0000901222229,7.499989986419678C8.828520122222901,7.499989986419678,9.5000901222229,6.828419986419678,9.5000901222229,5.999989986419678C9.5000901222229,5.999989986419678,9.5000901222229,5.999989986419678,9.5000901222229,5.999989986419678Z" fill="#7B899F" fill-opacity="1"/></g><g><path d="M8.36195836341858,14.468420714569092C8.188208363418578,14.723620714569092,7.811958363418579,14.723620714569092,7.638218363418579,14.468420714569092C7.638218363418579,14.468420714569092,3.855570363418579,8.911740714569092,3.855570363418579,8.911740714569092C2.5004103634185793,6.921030714569092,2.7520403634185793,4.2480407145690915,4.45487836341858,2.5451907145690917C6.4128383634185795,0.5872317145690917,9.587328363418578,0.5872307145690918,11.54529836341858,2.5451907145690917C13.248128363418578,4.2480407145690915,13.49982836341858,6.921030714569092,12.144598363418579,8.911740714569092C12.144598363418579,8.911740714569092,8.36195836341858,14.468420714569092,8.36195836341858,14.468420714569092C8.36195836341858,14.468420714569092,8.36195836341858,14.468420714569092,8.36195836341858,14.468420714569092ZM11.31799836341858,8.349010714569092C12.40279836341858,6.7553607145690915,12.20139836341858,4.615510714569092,10.838198363418579,3.252300714569092C9.27074836341858,1.6848597145690918,6.729428363418579,1.6848597145690918,5.16198836341858,3.252300714569092C3.798780363418579,4.615510714569092,3.5973503634185793,6.7553607145690915,4.682208363418579,8.349010714569092C4.682208363418579,8.349010714569092,8.00008836341858,13.222920714569092,8.00008836341858,13.222920714569092C8.00008836341858,13.222920714569092,11.31799836341858,8.349010714569092,11.31799836341858,8.349010714569092C11.31799836341858,8.349010714569092,11.31799836341858,8.349010714569092,11.31799836341858,8.349010714569092Z" fill="#7B899F" fill-opacity="1"/></g></g></svg>