<svg xmlns="http://www.w3.org/2000/svg" xmlns:xlink="http://www.w3.org/1999/xlink" fill="none" version="1.1" width="16" height="16" viewBox="0 0 16 16"><defs><clipPath id="master_svg0_0_314"><rect x="0" y="0" width="16" height="16" rx="0"/></clipPath></defs><g clip-path="url(#master_svg0_0_314)"><g><path d="M7.999970703124999,9.000002441406249C9.535320703124999,9.000002441406249,10.779970703124999,7.75535244140625,10.779970703124999,6.220002441406249C10.779970703124999,4.68465244140625,9.535320703124999,3.44000244140625,7.999970703124999,3.44000244140625C6.464620703125,3.44000244140625,5.219970703125,4.68465244140625,5.219970703125,6.220002441406249C5.219970703125,7.75535244140625,6.464620703125,9.000002441406249,7.999970703124999,9.000002441406249C7.999970703124999,9.000002441406249,7.999970703124999,9.000002441406249,7.999970703124999,9.000002441406249ZM7.999970703124999,8.000002441406249C7.016900703125,8.000002441406249,6.219970703125,7.20307244140625,6.219970703125,6.220002441406249C6.219970703125,5.23693244140625,7.016900703125,4.44000244140625,7.999970703124999,4.44000244140625C8.983040703124999,4.44000244140625,9.779970703124999,5.23693244140625,9.779970703124999,6.220002441406249C9.779970703124999,7.20307244140625,8.983040703124999,8.000002441406249,7.999970703124999,8.000002441406249C7.999970703124999,8.000002441406249,7.999970703124999,8.000002441406249,7.999970703124999,8.000002441406249Z" fill="#7B899F" fill-opacity="1"/></g><g><path d="M8,15C11.866,15,15,11.866,15,8C15,4.13401,11.866,1,8,1C4.13401,1,1,4.13401,1,8C1,11.866,4.13401,15,8,15C8,15,8,15,8,15ZM12.9955,11.3246C11.4748,10.47651,9.78555,10,7.99998,10C6.21441,10,4.52519,10.4765,3.00451,11.3246C2.36991,10.37291,2,9.22966,2,8C2,4.68629,4.68629,2,8,2C11.3137,2,14,4.68629,14,8C14,9.22966,13.6301,10.37293,12.9955,11.3246C12.9955,11.3246,12.9955,11.3246,12.9955,11.3246ZM12.3632,12.1185C11.2693,13.277,9.71909,14,8,14C6.2809,14,4.73066,13.277,3.63675,12.1185C4.9805,11.3976,6.45282,11,7.99998,11C9.54714,11,11.0195,11.3976,12.3632,12.1185C12.3632,12.1185,12.3632,12.1185,12.3632,12.1185Z" fill="#7B899F" fill-opacity="1"/></g></g></svg>