<svg xmlns="http://www.w3.org/2000/svg" xmlns:xlink="http://www.w3.org/1999/xlink" fill="none" version="1.1" width="16" height="16" viewBox="0 0 16 16"><defs><clipPath id="master_svg0_0_287"><rect x="0" y="0" width="16" height="16" rx="0"/></clipPath></defs><g clip-path="url(#master_svg0_0_287)"><g><path d="M15,14C15,14,1,14,1,14C1,14,1,13,1,13C1,13,15,13,15,13C15,13,15,14,15,14C15,14,15,14,15,14Z" fill-rule="evenodd" fill="#7B899F" fill-opacity="1"/></g><g><path d="M3,11C3,11,3,5,3,5C3,5,4,5,4,5C4,5,4,11,4,11C4,11,3,11,3,11C3,11,3,11,3,11Z" fill-rule="evenodd" fill="#7B899F" fill-opacity="1"/></g><g><path d="M12,11C12,11,12,7,12,7C12,7,13,7,13,7C13,7,13,11,13,11C13,11,12,11,12,11C12,11,12,11,12,11Z" fill-rule="evenodd" fill="#7B899F" fill-opacity="1"/></g><g><path d="M7.5,11C7.5,11,7.5,1,7.5,1C7.5,1,8.5,1,8.5,1C8.5,1,8.5,11,8.5,11C8.5,11,7.5,11,7.5,11C7.5,11,7.5,11,7.5,11Z" fill-rule="evenodd" fill="#7B899F" fill-opacity="1"/></g></g></svg>