<svg xmlns="http://www.w3.org/2000/svg" xmlns:xlink="http://www.w3.org/1999/xlink" fill="none" version="1.1" width="16" height="16" viewBox="0 0 16 16"><defs><clipPath id="master_svg0_0_180"><rect x="0" y="0" width="16" height="16" rx="0"/></clipPath></defs><g clip-path="url(#master_svg0_0_180)"><g><path d="M2,3C2,2.447718,2.447718,2,3,2C3,2,13,2,13,2C13.5522,2,14,2.447692,14,3C14,3,14,5.5,14,5.5C14,6.05231,13.5522,6.5,13,6.5C13,6.5,3,6.5,3,6.5C2.447718,6.5,2,6.05228,2,5.5C2,5.5,2,3,2,3C2,3,2,3,2,3ZM13,3C13,3,3,3,3,3C3,3,3,5.5,3,5.5C3,5.5,13,5.5,13,5.5C13,5.5,13,3,13,3C13,3,13,3,13,3Z" fill-rule="evenodd" fill="#7B899F" fill-opacity="1"/></g><g><path d="M2,9C2,8.447718,2.447718,8,3,8C3,8,13,8,13,8C13.5522,8,14,8.447692,14,9C14,9,14,14,14,14C14,14,13,14,13,14C13,14,13,9,13,9C13,9,3,9,3,9C3,9,3,14,3,14C3,14,2,14,2,14C2,14,2,9,2,9C2,9,2,9,2,9Z" fill-rule="evenodd" fill="#7B899F" fill-opacity="1"/></g></g></svg>