<svg xmlns="http://www.w3.org/2000/svg" xmlns:xlink="http://www.w3.org/1999/xlink" fill="none" version="1.1" width="16" height="16" viewBox="0 0 16 16"><defs><clipPath id="master_svg0_0_218"><rect x="0" y="0" width="16" height="16" rx="0"/></clipPath></defs><g clip-path="url(#master_svg0_0_218)"><g><path d="M1,4C1,3.447718,1.447718,3,2,3C2,3,14,3,14,3C14.5522,3,15,3.447692,15,4C15,4,15,12,15,12C15,12.55224,14.5522,13,14,13C14,13,2,13,2,13C1.447692,13,1,12.55222,1,12C1,12,1,4,1,4C1,4,1,4,1,4ZM14,4C14,4,2,4,2,4C2,4,2,12,2,12C2,12,14,12,14,12C14,12,14,4,14,4C14,4,14,4,14,4Z" fill-rule="evenodd" fill="#7B899F" fill-opacity="1"/></g><g><path d="M4,7C4,6.447718,4.447718,6,5,6C5,6,11,6,11,6C11.55222,6,12,6.447692,12,7C12,7,12,9,12,9C12,9.55231,11.55222,10,11,10C11,10,5,10,5,10C4.447718,10,4,9.55228,4,9C4,9,4,7,4,7C4,7,4,7,4,7ZM11,7C11,7,5,7,5,7C5,7,5,9,5,9C5,9,11,9,11,9C11,9,11,7,11,7C11,7,11,7,11,7Z" fill-rule="evenodd" fill="#7B899F" fill-opacity="1"/></g></g></svg>