<svg xmlns="http://www.w3.org/2000/svg" xmlns:xlink="http://www.w3.org/1999/xlink" fill="none" version="1.1" width="16" height="16" viewBox="0 0 16 16"><defs><clipPath id="master_svg0_0_36"><rect x="0" y="0" width="16" height="16" rx="0"/></clipPath></defs><g clip-path="url(#master_svg0_0_36)"><g><path d="M2,4C2,3.447715,2.447715,3,3,3C3,3,13,3,13,3C13.5523,3,14,3.447715,14,4C14,4,14,13,14,13C14,13.5523,13.5523,14,13,14C13,14,3,14,3,14C2.447715,14,2,13.5523,2,13C2,13,2,4,2,4C2,4,2,4,2,4ZM13,4C13,4,3,4,3,4C3,4,3,13,3,13C3,13,13,13,13,13C13,13,13,4,13,4C13,4,13,4,13,4Z" fill-rule="evenodd" fill="#7B899F" fill-opacity="1"/></g><g><path d="M13.5,7C13.5,7,2.5,7,2.5,7C2.5,7,2.5,6,2.5,6C2.5,6,13.5,6,13.5,6C13.5,6,13.5,7,13.5,7C13.5,7,13.5,7,13.5,7Z" fill-rule="evenodd" fill="#7B899F" fill-opacity="1"/></g><g><path d="M9,9.5C9,9.5,4,9.5,4,9.5C4,9.5,4,8.5,4,8.5C4,8.5,9,8.5,9,8.5C9,8.5,9,9.5,9,9.5C9,9.5,9,9.5,9,9.5Z" fill-rule="evenodd" fill="#7B899F" fill-opacity="1"/></g><g><path d="M12,11.5C12,11.5,4,11.5,4,11.5C4,11.5,4,10.5,4,10.5C4,10.5,12,10.5,12,10.5C12,10.5,12,11.5,12,11.5C12,11.5,12,11.5,12,11.5Z" fill-rule="evenodd" fill="#7B899F" fill-opacity="1"/></g><g><path d="M5,5C5,5,5,1.5,5,1.5C5,1.5,6,1.5,6,1.5C6,1.5,6,5,6,5C6,5,5,5,5,5C5,5,5,5,5,5Z" fill-rule="evenodd" fill="#7B899F" fill-opacity="1"/></g><g><path d="M10,5C10,5,10,1.5,10,1.5C10,1.5,11,1.5,11,1.5C11,1.5,11,5,11,5C11,5,10,5,10,5C10,5,10,5,10,5Z" fill-rule="evenodd" fill="#7B899F" fill-opacity="1"/></g></g></svg>