<svg xmlns="http://www.w3.org/2000/svg" xmlns:xlink="http://www.w3.org/1999/xlink" fill="none" version="1.1" width="16" height="16" viewBox="0 0 16 16"><defs><clipPath id="master_svg0_0_57"><rect x="0" y="0" width="16" height="16" rx="0"/></clipPath></defs><g clip-path="url(#master_svg0_0_57)"><g><path d="M2,2C2,2,2,14,2,14C2,14,14,14,14,14C14,14,14,2,14,2C14,2,2,2,2,2C2,2,2,2,2,2ZM1,2C1,1.44772,1.44772,1,2,1C2,1,14,1,14,1C14.5523,1,15,1.44772,15,2C15,2,15,14,15,14C15,14.5523,14.5523,15,14,15C14,15,2,15,2,15C1.44772,15,1,14.5523,1,14C1,14,1,2,1,2C1,2,1,2,1,2ZM3.5,10C3.5,10,12.5,10,12.5,10C12.5,10,12.5,9,12.5,9C12.5,9,3.5,9,3.5,9C3.5,9,3.5,10,3.5,10C3.5,10,3.5,10,3.5,10ZM7.5,12.5C7.5,12.5,3.5,12.5,3.5,12.5C3.5,12.5,3.5,11.5,3.5,11.5C3.5,11.5,7.5,11.5,7.5,11.5C7.5,11.5,7.5,12.5,7.5,12.5C7.5,12.5,7.5,12.5,7.5,12.5ZM4.5,4.5C4.5,4.5,4.5,6.5,4.5,6.5C4.5,6.5,11.5,6.5,11.5,6.5C11.5,6.5,11.5,4.5,11.5,4.5C11.5,4.5,4.5,4.5,4.5,4.5C4.5,4.5,4.5,4.5,4.5,4.5ZM3.5,4.5C3.5,3.94772,3.94772,3.5,4.5,3.5C4.5,3.5,11.5,3.5,11.5,3.5C12.0523,3.5,12.5,3.94772,12.5,4.5C12.5,4.5,12.5,6.5,12.5,6.5C12.5,7.05228,12.0523,7.5,11.5,7.5C11.5,7.5,4.5,7.5,4.5,7.5C3.94772,7.5,3.5,7.05228,3.5,6.5C3.5,6.5,3.5,4.5,3.5,4.5C3.5,4.5,3.5,4.5,3.5,4.5Z" fill="#7B899F" fill-opacity="1"/></g></g></svg>