<svg xmlns="http://www.w3.org/2000/svg" xmlns:xlink="http://www.w3.org/1999/xlink" fill="none" version="1.1" width="16" height="16" viewBox="0 0 16 16"><defs><clipPath id="master_svg0_0_60"><rect x="0" y="0" width="16" height="16" rx="0"/></clipPath></defs><g clip-path="url(#master_svg0_0_60)"><g><path d="M4,4C4,3.447718,4.447718,3,5,3C5,3,11,3,11,3C11.55222,3,12,3.447692,12,4C12,4,12,12,12,12C12,12.55224,11.552240000000001,13,11,13C11,13,5,13,5,13C4.447692,13,4,12.55222,4,12C4,12,4,4,4,4C4,4,4,4,4,4ZM11,4C11,4,5,4,5,4C5,4,5,12,5,12C5,12,11,12,11,12C11,12,11,4,11,4C11,4,11,4,11,4Z" fill-rule="evenodd" fill="#7B899F" fill-opacity="1"/></g><g><path d="M14.5,3C14.5,3,14.5,13,14.5,13C14.5,13,13.5,13,13.5,13C13.5,13,13.5,3,13.5,3C13.5,3,14.5,3,14.5,3C14.5,3,14.5,3,14.5,3Z" fill-rule="evenodd" fill="#7B899F" fill-opacity="1"/></g><g><path d="M2.5,3C2.5,3,2.5,13,2.5,13C2.5,13,1.5,13,1.5,13C1.5,13,1.5,3,1.5,3C1.5,3,2.5,3,2.5,3C2.5,3,2.5,3,2.5,3Z" fill-rule="evenodd" fill="#7B899F" fill-opacity="1"/></g></g></svg>