<svg xmlns="http://www.w3.org/2000/svg" xmlns:xlink="http://www.w3.org/1999/xlink" fill="none" version="1.1" width="16" height="16" viewBox="0 0 16 16"><defs><clipPath id="master_svg0_0_196"><rect x="0" y="0" width="16" height="16" rx="0"/></clipPath></defs><g clip-path="url(#master_svg0_0_196)"><g><path d="M10.774800091400145,5.582290172576904C10.774800091400145,5.582290172576904,6.999950091400146,9.357080172576904,6.999950091400146,9.357080172576904C6.999950091400146,9.357080172576904,5.220480091400146,7.577770172576904,5.220480091400146,7.577770172576904C5.220480091400146,7.577770172576904,4.5134100914001465,8.284910172576904,4.5134100914001465,8.284910172576904C4.5134100914001465,8.284910172576904,6.999970091400146,10.771200172576904,6.999970091400146,10.771200172576904C6.999970091400146,10.771200172576904,11.481900091400146,6.289410172576904,11.481900091400146,6.289410172576904C11.481900091400146,6.289410172576904,10.774800091400145,5.582290172576904,10.774800091400145,5.582290172576904C10.774800091400145,5.582290172576904,10.774800091400145,5.582290172576904,10.774800091400145,5.582290172576904Z" fill="#7B899F" fill-opacity="1"/></g><g><path d="M3,14C2.44772,14,2,13.5523,2,13C2,13,2,3,2,3C2,2.44771,2.44772,2,3,2C3,2,13,2,13,2C13.5523,2,14,2.44772,14,3C14,3,14,13,14,13C14,13.5523,13.5523,14,13,14C13,14,3,14,3,14C3,14,3,14,3,14ZM3,13C3,13,13,13,13,13C13,13,13,3,13,3C13,3,3,3,3,3C3,3,3,13,3,13C3,13,3,13,3,13Z" fill="#7B899F" fill-opacity="1"/></g></g></svg>