<svg xmlns="http://www.w3.org/2000/svg" xmlns:xlink="http://www.w3.org/1999/xlink" fill="none" version="1.1" width="16" height="16" viewBox="0 0 16 16"><defs><clipPath id="master_svg0_0_159"><rect x="0" y="0" width="16" height="16" rx="0"/></clipPath></defs><g clip-path="url(#master_svg0_0_159)"><g><path d="M2,3C2,2.447718,2.447718,2,3,2C3,2,13,2,13,2C13.5522,2,14,2.447692,14,3C14,3,14,14,14,14C14,14,13,14,13,14C13,14,13,3,13,3C13,3,3,3,3,3C3,3,3,14,3,14C3,14,2,14,2,14C2,14,2,3,2,3C2,3,2,3,2,3Z" fill-rule="evenodd" fill="#7B899F" fill-opacity="1"/></g><g><path d="M13,6.5C13,6.5,2,6.5,2,6.5C2,6.5,2,5.5,2,5.5C2,5.5,13,5.5,13,5.5C13,5.5,13,6.5,13,6.5C13,6.5,13,6.5,13,6.5Z" fill-rule="evenodd" fill="#7B899F" fill-opacity="1"/></g></g></svg>