<svg xmlns="http://www.w3.org/2000/svg" xmlns:xlink="http://www.w3.org/1999/xlink" fill="none" version="1.1" width="16" height="16" viewBox="0 0 16 16"><defs><clipPath id="master_svg0_0_318"><rect x="0" y="0" width="16" height="16" rx="0"/></clipPath></defs><g clip-path="url(#master_svg0_0_318)"><g><path d="M7.99998298828125,0.833343505859375C4.04193298828125,0.833343505859375,0.83331298828125,4.041963505859375,0.83331298828125,8.000013505859375C0.83331298828125,11.958043505859376,4.04193298828125,15.166643505859374,7.99998298828125,15.166643505859374C8.310292988281251,15.166643505859374,8.59208298828125,15.108743505859374,8.83810298828125,14.980043505859374C9.08691298828125,14.849743505859376,9.27041298828125,14.661943505859375,9.40374298828125,14.447043505859375C9.65535298828125,14.041443505859375,9.73491298828125,13.523243505859375,9.78405298828125,13.071043505859375C9.80078298828125,12.917043505859375,9.81426298828125,12.768043505859374,9.82744298828125,12.622343505859375C9.85666298828125,12.299143505859375,9.88439298828125,11.992543505859375,9.94279298828125,11.685443505859375C10.02493298828125,11.253443505859375,10.15497298828125,10.912443505859375,10.37424298828125,10.664903505859375C10.53607298828125,10.482223505859375,10.84021298828125,10.327143505859375,11.30841298828125,10.190973505859375C11.63751298828125,10.095263505859375,11.98961298828125,10.023403505859376,12.36161298828125,9.947463505859375C12.51441298828125,9.916283505859376,12.67061298828125,9.884413505859374,12.82991298828125,9.849913505859375C13.34551298828125,9.738293505859374,13.90281298828125,9.597203505859374,14.33471298828125,9.346963505859375C14.79491298828125,9.080283505859375,15.16661298828125,8.653393505859375,15.16661298828125,8.000013505859375C15.16661298828125,4.041963505859375,11.95801298828125,0.833343505859375,7.99998298828125,0.833343505859375ZM1.83331298828125,8.000013505859375C1.83331298828125,4.594253505859375,4.59422298828125,1.833343505859375,7.99998298828125,1.833343505859375C11.40571298828125,1.833343505859375,14.16661298828125,4.594253505859375,14.16661298828125,8.000013505859375C14.16661298828125,8.194233505859376,14.08521298828125,8.335753505859376,13.83341298828125,8.481693505859376C13.55311298828125,8.644073505859375,13.13911298828125,8.759793505859374,12.61831298828125,8.872563505859375C12.48611298828125,8.901193505859375,12.34631298828125,8.929713505859375,12.20281298828125,8.959013505859375C11.81541298828125,9.038093505859376,11.40021298828125,9.122853505859375,11.02911298828125,9.230763505859375C10.52465298828125,9.377503505859375,9.98495298828125,9.596283505859375,9.62572298828125,10.001783505859375C9.23430298828125,10.443613505859375,9.05733298828125,10.988843505859375,8.96039298828125,11.498643505859375C8.89244298828125,11.856043505859375,8.85735298828125,12.242643505859375,8.82617298828125,12.586243505859375C8.81406298828125,12.719743505859375,8.80253298828125,12.846743505859376,8.78990298828125,12.963043505859375C8.74005298828125,13.421743505859375,8.67278298828125,13.728343505859375,8.55398298828125,13.919843505859374C8.502112988281251,14.003543505859374,8.444492988281251,14.057343505859375,8.37434298828125,14.094043505859375C8.30138298828125,14.132243505859375,8.18634298828125,14.166643505859374,7.99998298828125,14.166643505859374C4.59422298828125,14.166643505859374,1.83331298828125,11.405743505859375,1.83331298828125,8.000013505859375ZM9.33331298828125,3.166653505859375C8.50487298828125,3.166653505859375,7.83331298828125,3.838213505859375,7.83331298828125,4.666653505859375C7.83331298828125,5.495093505859375,8.50487298828125,6.166653505859375,9.33331298828125,6.166653505859375C10.16175298828125,6.166653505859375,10.83331298828125,5.495093505859375,10.83331298828125,4.666653505859375C10.83331298828125,3.838213505859375,10.16175298828125,3.166653505859375,9.33331298828125,3.166653505859375ZM8.83331298828125,4.666653505859375C8.83331298828125,4.390493505859375,9.05715298828125,4.166653505859375,9.33331298828125,4.166653505859375C9.60947298828125,4.166653505859375,9.83331298828125,4.390493505859375,9.83331298828125,4.666653505859375C9.83331298828125,4.942813505859375,9.60947298828125,5.166653505859375,9.33331298828125,5.166653505859375C9.05715298828125,5.166653505859375,8.83331298828125,4.942813505859375,8.83331298828125,4.666653505859375ZM5.33331298828125,4.500003505859375C4.5048729882812495,4.500003505859375,3.83331298828125,5.171553505859375,3.83331298828125,6.000003505859375C3.83331298828125,6.828443505859375,4.5048729882812495,7.500003505859375,5.33331298828125,7.500003505859375C6.16175298828125,7.500003505859375,6.83331298828125,6.828443505859375,6.83331298828125,6.000003505859375C6.83331298828125,5.171553505859375,6.16175298828125,4.500003505859375,5.33331298828125,4.500003505859375ZM4.83331298828125,6.000003505859375C4.83331298828125,5.723843505859375,5.05715298828125,5.500003505859375,5.33331298828125,5.500003505859375C5.60947298828125,5.500003505859375,5.83331298828125,5.723843505859375,5.83331298828125,6.000003505859375C5.83331298828125,6.276163505859375,5.60947298828125,6.500003505859375,5.33331298828125,6.500003505859375C5.05715298828125,6.500003505859375,4.83331298828125,6.276163505859375,4.83331298828125,6.000003505859375ZM5.66668298828125,8.833343505859375C4.83824298828125,8.833343505859375,4.16668298828125,9.504903505859374,4.16668298828125,10.333343505859375C4.16668298828125,11.161743505859375,4.83824298828125,11.833343505859375,5.66668298828125,11.833343505859375C6.49512298828125,11.833343505859375,7.16668298828125,11.161743505859375,7.16668298828125,10.333343505859375C7.16668298828125,9.504903505859374,6.49512298828125,8.833343505859375,5.66668298828125,8.833343505859375ZM5.16668298828125,10.333343505859375C5.16668298828125,10.057183505859374,5.39052298828125,9.833343505859375,5.66668298828125,9.833343505859375C5.94284298828125,9.833343505859375,6.16668298828125,10.057183505859374,6.16668298828125,10.333343505859375C6.16668298828125,10.609503505859376,5.94284298828125,10.833343505859375,5.66668298828125,10.833343505859375C5.39052298828125,10.833343505859375,5.16668298828125,10.609503505859376,5.16668298828125,10.333343505859375Z" fill-rule="evenodd" fill="#7B899F" fill-opacity="1"/></g></g></svg>