<svg xmlns="http://www.w3.org/2000/svg" xmlns:xlink="http://www.w3.org/1999/xlink" fill="none" version="1.1" width="16" height="16" viewBox="0 0 16 16"><defs><clipPath id="master_svg0_0_145"><rect x="0" y="0" width="16" height="16" rx="0"/></clipPath></defs><g clip-path="url(#master_svg0_0_145)"><g><path d="M2,3C2,2.447718,2.447718,2,3,2C3,2,13,2,13,2C13.5522,2,14,2.447692,14,3C14,3,14,13,14,13C14,13.5522,13.5522,14,13,14C13,14,3,14,3,14C2.447692,14,2,13.5522,2,13C2,13,2,3,2,3C2,3,2,3,2,3ZM13,3C13,3,3,3,3,3C3,3,3,13,3,13C3,13,13,13,13,13C13,13,13,3,13,3C13,3,13,3,13,3Z" fill-rule="evenodd" fill="#7B899F" fill-opacity="1"/></g><g><path d="M4.5,11.5C4.5,11.5,4.5,6.5,4.5,6.5C4.5,6.5,5.5,6.5,5.5,6.5C5.5,6.5,5.5,11.5,5.5,11.5C5.5,11.5,4.5,11.5,4.5,11.5C4.5,11.5,4.5,11.5,4.5,11.5Z" fill-rule="evenodd" fill="#7B899F" fill-opacity="1"/></g><g><path d="M10.5,11.5C10.5,11.5,10.5,8.5,10.5,8.5C10.5,8.5,11.5,8.5,11.5,8.5C11.5,8.5,11.5,11.5,11.5,11.5C11.5,11.5,10.5,11.5,10.5,11.5C10.5,11.5,10.5,11.5,10.5,11.5Z" fill-rule="evenodd" fill="#7B899F" fill-opacity="1"/></g><g><path d="M7.5,11.5C7.5,11.5,7.5,4.5,7.5,4.5C7.5,4.5,8.5,4.5,8.5,4.5C8.5,4.5,8.5,11.5,8.5,11.5C8.5,11.5,7.5,11.5,7.5,11.5C7.5,11.5,7.5,11.5,7.5,11.5Z" fill-rule="evenodd" fill="#7B899F" fill-opacity="1"/></g></g></svg>