<svg xmlns="http://www.w3.org/2000/svg" xmlns:xlink="http://www.w3.org/1999/xlink" fill="none" version="1.1" width="16" height="16" viewBox="0 0 16 16"><defs><clipPath id="master_svg0_0_215"><rect x="0" y="0" width="16" height="16" rx="0"/></clipPath></defs><g clip-path="url(#master_svg0_0_215)"><g><path d="M10,3C10,3,6,3,6,3C6,3,6,1.5,6,1.5C6,1.5,5,1.5,5,1.5C5,1.5,5,3,5,3C5,3,3,3,3,3C2.44772,3,2,3.44771,2,4C2,4,2,13,2,13C2,13.5523,2.44772,14,3,14C3,14,13,14,13,14C13.5523,14,14,13.5523,14,13C14,13,14,4,14,4C14,3.44772,13.5523,3,13,3C13,3,11,3,11,3C11,3,11,1.5,11,1.5C11,1.5,10,1.5,10,1.5C10,1.5,10,3,10,3C10,3,10,3,10,3ZM5,5C5,5,6,5,6,5C6,5,6,4,6,4C6,4,10,4,10,4C10,4,10,5,10,5C10,5,11,5,11,5C11,5,11,4,11,4C11,4,13,4,13,4C13,4,13,6,13,6C13,6,3,6,3,6C3,6,3,4,3,4C3,4,5,4,5,4C5,4,5,5,5,5C5,5,5,5,5,5ZM3,7C3,7,13,7,13,7C13,7,13,13,13,13C13,13,3,13,3,13C3,13,3,7,3,7C3,7,3,7,3,7Z" fill="#7B899F" fill-opacity="1"/></g></g></svg>