<svg xmlns="http://www.w3.org/2000/svg" xmlns:xlink="http://www.w3.org/1999/xlink" fill="none" version="1.1" width="16" height="16" viewBox="0 0 16 16"><defs><clipPath id="master_svg0_0_113"><rect x="0" y="0" width="16" height="16" rx="0"/></clipPath></defs><g clip-path="url(#master_svg0_0_113)"><g><path d="M2,4C2,3.447718,2.447718,3,3,3C3,3,9,3,9,3C9.55228,3,10,3.447718,10,4C10,4,10,6,10,6C10,6.55228,9.55228,7,9,7C9,7,3,7,3,7C2.447718,7,2,6.55228,2,6C2,6,2,4,2,4C2,4,2,4,2,4ZM9,4C9,4,3,4,3,4C3,4,3,6,3,6C3,6,9,6,9,6C9,6,9,4,9,4C9,4,9,4,9,4Z" fill-rule="evenodd" fill="#7B899F" fill-opacity="1"/></g><g><path d="M14,10C14,10,2,10,2,10C2,10,2,9,2,9C2,9,14,9,14,9C14,9,14,10,14,10C14,10,14,10,14,10Z" fill-rule="evenodd" fill="#7B899F" fill-opacity="1"/></g><g><path d="M14,13C14,13,2,13,2,13C2,13,2,12,2,12C2,12,14,12,14,12C14,12,14,13,14,13C14,13,14,13,14,13Z" fill-rule="evenodd" fill="#7B899F" fill-opacity="1"/></g></g></svg>