<svg xmlns="http://www.w3.org/2000/svg" xmlns:xlink="http://www.w3.org/1999/xlink" fill="none" version="1.1" width="16" height="16" viewBox="0 0 16 16"><defs><clipPath id="master_svg0_0_79"><rect x="0" y="0" width="16" height="16" rx="0"/></clipPath></defs><g clip-path="url(#master_svg0_0_79)"><g><path d="M2,3C2,2.447718,2.447718,2,3,2C3,2,13,2,13,2C13.5522,2,14,2.447692,14,3C14,3,14,5,14,5C14,5.55231,13.5522,6,13,6C13,6,3,6,3,6C2.447718,6,2,5.55228,2,5C2,5,2,3,2,3C2,3,2,3,2,3ZM13,3C13,3,3,3,3,3C3,3,3,5,3,5C3,5,13,5,13,5C13,5,13,3,13,3C13,3,13,3,13,3Z" fill-rule="evenodd" fill="#7B899F" fill-opacity="1"/></g><g><path d="M2,11C2,10.447784,2.447692,10,3,10C3,10,13,10,13,10C13.5522,10,14,10.447758,14,11C14,11,14,13,14,13C14,13.55224,13.5522,14,13,14C13,14,3,14,3,14C2.447692,14,2,13.55222,2,13C2,13,2,11,2,11C2,11,2,11,2,11ZM13,11C13,11,3,11,3,11C3,11,3,13,3,13C3,13,13,13,13,13C13,13,13,11,13,11C13,11,13,11,13,11Z" fill-rule="evenodd" fill="#7B899F" fill-opacity="1"/></g><g><path d="M14,8.5C14,8.5,2,8.5,2,8.5C2,8.5,2,7.5,2,7.5C2,7.5,14,7.5,14,7.5C14,7.5,14,8.5,14,8.5C14,8.5,14,8.5,14,8.5Z" fill-rule="evenodd" fill="#7B899F" fill-opacity="1"/></g></g></svg>