<svg xmlns="http://www.w3.org/2000/svg" xmlns:xlink="http://www.w3.org/1999/xlink" fill="none" version="1.1" width="16" height="16" viewBox="0 0 16 16"><defs><clipPath id="master_svg0_0_163"><rect x="0" y="0" width="16" height="16" rx="0"/></clipPath></defs><g clip-path="url(#master_svg0_0_163)"><g><path d="M1.499019980430603,3.9988999366760254C1.499019980430603,3.4466199366760253,1.946739980430603,2.9988999366760254,2.499019980430603,2.9988999366760254C2.499019980430603,2.9988999366760254,13.499019980430603,2.9988999366760254,13.499019980430603,2.9988999366760254C14.051319980430604,2.9988999366760254,14.499019980430603,3.4466199366760253,14.499019980430603,3.9988999366760254C14.499019980430603,3.9988999366760254,14.499019980430603,11.998899936676025,14.499019980430603,11.998899936676025C14.499019980430603,12.551199936676026,14.051319980430604,12.998899936676025,13.499019980430603,12.998899936676025C13.499019980430603,12.998899936676025,2.499019980430603,12.998899936676025,2.499019980430603,12.998899936676025C1.946739980430603,12.998899936676025,1.499019980430603,12.551199936676026,1.499019980430603,11.998899936676025C1.499019980430603,11.998899936676025,1.499019980430603,3.9988999366760254,1.499019980430603,3.9988999366760254C1.499019980430603,3.9988999366760254,1.499019980430603,3.9988999366760254,1.499019980430603,3.9988999366760254ZM13.097619980430602,3.9988999366760254C13.097619980430602,3.9988999366760254,2.900409980430603,3.9988999366760254,2.900409980430603,3.9988999366760254C2.900409980430603,3.9988999366760254,7.999019980430603,7.397979936676025,7.999019980430603,7.397979936676025C7.999019980430603,7.397979936676025,13.097619980430602,3.9988999366760254,13.097619980430602,3.9988999366760254C13.097619980430602,3.9988999366760254,13.097619980430602,3.9988999366760254,13.097619980430602,3.9988999366760254ZM2.499019980430603,4.9331599366760255C2.499019980430603,4.9331599366760255,2.499019980430603,11.998899936676025,2.499019980430603,11.998899936676025C2.499019980430603,11.998899936676025,13.499019980430603,11.998899936676025,13.499019980430603,11.998899936676025C13.499019980430603,11.998899936676025,13.499019980430603,4.9331599366760255,13.499019980430603,4.9331599366760255C13.499019980430603,4.9331599366760255,7.999019980430603,8.599829936676025,7.999019980430603,8.599829936676025C7.999019980430603,8.599829936676025,2.499019980430603,4.9331599366760255,2.499019980430603,4.9331599366760255C2.499019980430603,4.9331599366760255,2.499019980430603,4.9331599366760255,2.499019980430603,4.9331599366760255Z" fill-rule="evenodd" fill="#7B899F" fill-opacity="1"/></g></g></svg>