<svg xmlns="http://www.w3.org/2000/svg" xmlns:xlink="http://www.w3.org/1999/xlink" fill="none" version="1.1" width="16" height="16" viewBox="0 0 16 16"><defs><clipPath id="master_svg0_0_346"><rect x="0" y="0" width="16" height="16" rx="0"/></clipPath></defs><g clip-path="url(#master_svg0_0_346)"><g><path d="M2.5105127604293824,1.898023C2.558812760429382,1.666163,2.763162760429382,1.5,3.0000027604293824,1.5C3.0000027604293824,1.5,13.000032760429383,1.5,13.000032760429383,1.5C13.236832760429383,1.5,13.441232760429383,1.666163,13.489532760429382,1.898023C13.489532760429382,1.898023,15.156132760429383,9.89802,15.156132760429383,9.89802C15.212432760429383,10.16836,15.038932760429383,10.43317,14.768632760429382,10.48949C14.498332760429383,10.54581,14.233532760429382,10.37232,14.177132760429382,10.10198C14.177132760429382,10.10198,12.593432760429382,2.5,12.593432760429382,2.5C12.593432760429382,2.5,3.4065727604293823,2.5,3.4065727604293823,2.5C3.4065727604293823,2.5,1.8228237604293822,10.10198,1.8228237604293822,10.10198C1.7665027604293824,10.37232,1.5016937604293823,10.54581,1.2313557604293823,10.48949C0.9610177604293824,10.43317,0.7875227604293823,10.16836,0.8438431604293823,9.89802C0.8438431604293823,9.89802,2.5105127604293824,1.898023,2.5105127604293824,1.898023C2.5105127604293824,1.898023,2.5105127604293824,1.898023,2.5105127604293824,1.898023Z" fill="#7B899F" fill-opacity="1"/></g><g><path d="M0.8333333730697632,10C0.8333333730697632,9.723858,1.057191373069763,9.5,1.3333333730697632,9.5C1.3333333730697632,9.5,4.9697033730697635,9.5,4.9697033730697635,9.5C5.189993373069763,9.5,5.384323373069763,9.644172,5.4482133730697635,9.854995C5.4482133730697635,9.854995,5.946703373069763,11.5,5.946703373069763,11.5C5.946703373069763,11.5,10.053293373069764,11.5,10.053293373069764,11.5C10.053293373069764,11.5,10.551783373069764,9.854995,10.551783373069764,9.854995C10.615673373069763,9.644172,10.810013373069763,9.5,11.030333373069762,9.5C11.030333373069762,9.5,14.666633373069763,9.5,14.666633373069763,9.5C14.942833373069764,9.5,15.166633373069763,9.723858,15.166633373069763,10C15.166633373069763,10,15.166633373069763,14.33333,15.166633373069763,14.33333C15.166633373069763,14.60948,14.942833373069764,14.83333,14.666633373069763,14.83333C14.666633373069763,14.83333,1.3333333730697632,14.83333,1.3333333730697632,14.83333C1.057191373069763,14.83333,0.8333333730697632,14.60948,0.8333333730697632,14.33333C0.8333333730697632,14.33333,0.8333333730697632,10,0.8333333730697632,10C0.8333333730697632,10,0.8333333730697632,10,0.8333333730697632,10ZM1.8333333730697632,10.5C1.8333333730697632,10.5,1.8333333730697632,13.83333,1.8333333730697632,13.83333C1.8333333730697632,13.83333,14.166633373069763,13.83333,14.166633373069763,13.83333C14.166633373069763,13.83333,14.166633373069763,10.5,14.166633373069763,10.5C14.166633373069763,10.5,11.401233373069763,10.5,11.401233373069763,10.5C11.401233373069763,10.5,10.902733373069763,12.14501,10.902733373069763,12.14501C10.838833373069763,12.355830000000001,10.644523373069763,12.5,10.424233373069763,12.5C10.424233373069763,12.5,5.575763373069763,12.5,5.575763373069763,12.5C5.3554733730697635,12.5,5.161143373069764,12.355830000000001,5.097253373069763,12.14501C5.097253373069763,12.14501,4.5987633730697635,10.5,4.5987633730697635,10.5C4.5987633730697635,10.5,1.8333333730697632,10.5,1.8333333730697632,10.5C1.8333333730697632,10.5,1.8333333730697632,10.5,1.8333333730697632,10.5Z" fill="#7B899F" fill-opacity="1"/></g><g><path d="M5.833333492279053,4.666666507720947C5.833333492279053,4.390524507720947,6.057191492279053,4.166666507720947,6.333333492279053,4.166666507720947C6.333333492279053,4.166666507720947,9.666663492279053,4.166666507720947,9.666663492279053,4.166666507720947C9.942813492279052,4.166666507720947,10.166663492279053,4.390524507720947,10.166663492279053,4.666666507720947C10.166663492279053,4.942808507720947,9.942813492279052,5.166666507720947,9.666663492279053,5.166666507720947C9.666663492279053,5.166666507720947,6.333333492279053,5.166666507720947,6.333333492279053,5.166666507720947C6.057191492279053,5.166666507720947,5.833333492279053,4.942808507720947,5.833333492279053,4.666666507720947C5.833333492279053,4.666666507720947,5.833333492279053,4.666666507720947,5.833333492279053,4.666666507720947Z" fill="#7B899F" fill-opacity="1"/></g><g><path d="M4.833333492279053,7.333333492279053C4.833333492279053,7.057191492279053,5.057191492279053,6.833333492279053,5.333333492279053,6.833333492279053C5.333333492279053,6.833333492279053,10.666663492279053,6.833333492279053,10.666663492279053,6.833333492279053C10.942813492279052,6.833333492279053,11.166663492279053,7.057191492279053,11.166663492279053,7.333333492279053C11.166663492279053,7.609475492279053,10.942813492279052,7.833333492279053,10.666663492279053,7.833333492279053C10.666663492279053,7.833333492279053,5.333333492279053,7.833333492279053,5.333333492279053,7.833333492279053C5.057191492279053,7.833333492279053,4.833333492279053,7.609475492279053,4.833333492279053,7.333333492279053C4.833333492279053,7.333333492279053,4.833333492279053,7.333333492279053,4.833333492279053,7.333333492279053Z" fill="#7B899F" fill-opacity="1"/></g></g></svg>