<svg xmlns="http://www.w3.org/2000/svg" xmlns:xlink="http://www.w3.org/1999/xlink" fill="none" version="1.1" width="16" height="16" viewBox="0 0 16 16"><defs><clipPath id="master_svg0_0_241"><rect x="0" y="0" width="16" height="16" rx="0"/></clipPath></defs><g clip-path="url(#master_svg0_0_241)"><g><path d="M2,3C1.44772,3,1,3.44772,1,4C1,4,1,12,1,12C1,12.5523,1.44772,13,2,13C2,13,14,13,14,13C14.5523,13,15,12.5523,15,12C15,12,15,4,15,4C15,3.44772,14.5523,3,14,3C14,3,2,3,2,3C2,3,2,3,2,3ZM6.25,4C6.25,4,9.75,4,9.75,4C9.75,4,9.75,7.5,9.75,7.5C9.75,7.5,6.25,7.5,6.25,7.5C6.25,7.5,6.25,4,6.25,4C6.25,4,6.25,4,6.25,4ZM5.25,7.5C5.25,7.5,2,7.5,2,7.5C2,7.5,2,4,2,4C2,4,5.25,4,5.25,4C5.25,4,5.25,7.5,5.25,7.5C5.25,7.5,5.25,7.5,5.25,7.5ZM2,8.5C2,8.5,5.25,8.5,5.25,8.5C5.25,8.5,5.25,12,5.25,12C5.25,12,2,12,2,12C2,12,2,8.5,2,8.5C2,8.5,2,8.5,2,8.5ZM6.25,8.5C6.25,8.5,9.75,8.5,9.75,8.5C9.75,8.5,9.75,12,9.75,12C9.75,12,6.25,12,6.25,12C6.25,12,6.25,8.5,6.25,8.5C6.25,8.5,6.25,8.5,6.25,8.5ZM10.75,8.5C10.75,8.5,14,8.5,14,8.5C14,8.5,14,12,14,12C14,12,10.75,12,10.75,12C10.75,12,10.75,8.5,10.75,8.5C10.75,8.5,10.75,8.5,10.75,8.5ZM14,7.5C14,7.5,10.75,7.5,10.75,7.5C10.75,7.5,10.75,4,10.75,4C10.75,4,14,4,14,4C14,4,14,7.5,14,7.5C14,7.5,14,7.5,14,7.5Z" fill="#7B899F" fill-opacity="1"/></g></g></svg>