<svg xmlns="http://www.w3.org/2000/svg" xmlns:xlink="http://www.w3.org/1999/xlink" fill="none" version="1.1" width="16" height="16" viewBox="0 0 16 16"><defs><clipPath id="master_svg0_0_89"><rect x="0" y="0" width="16" height="16" rx="0"/></clipPath></defs><g clip-path="url(#master_svg0_0_89)"><g><path d="M2,10.5C2,9.947784,2.447692,9.5,3,9.5C3,9.5,13,9.5,13,9.5C13.5522,9.5,14,9.947758,14,10.5C14,10.5,14,13,14,13C14,13.552240000000001,13.5522,14,13,14C13,14,3,14,3,14C2.447692,14,2,13.55222,2,13C2,13,2,10.5,2,10.5C2,10.5,2,10.5,2,10.5ZM13,10.5C13,10.5,3,10.5,3,10.5C3,10.5,3,13,3,13C3,13,13,13,13,13C13,13,13,10.5,13,10.5C13,10.5,13,10.5,13,10.5Z" fill-rule="evenodd" fill="#7B899F" fill-opacity="1"/></g><g><path d="M2,7C2,7,2,2,2,2C2,2,3,2,3,2C3,2,3,7,3,7C3,7,13,7,13,7C13,7,13,2,13,2C13,2,14,2,14,2C14,2,14,7,14,7C14,7.55231,13.5522,8,13,8C13,8,3,8,3,8C2.447718,8,2,7.55228,2,7C2,7,2,7,2,7Z" fill-rule="evenodd" fill="#7B899F" fill-opacity="1"/></g></g></svg>