<svg xmlns="http://www.w3.org/2000/svg" xmlns:xlink="http://www.w3.org/1999/xlink" fill="none" version="1.1" width="16" height="16" viewBox="0 0 16 16"><defs><clipPath id="master_svg0_0_226"><rect x="0" y="0" width="16" height="16" rx="0"/></clipPath></defs><g clip-path="url(#master_svg0_0_226)"><g><path d="M4,7.5C4,7.5,11,7.5,11,7.5C11,7.5,11,8.5,11,8.5C11,8.5,4,8.5,4,8.5C4,8.5,4,7.5,4,7.5C4,7.5,4,7.5,4,7.5Z" fill="#7B899F" fill-opacity="1"/></g><g><path d="M10.000119999999999,10C10.000119999999999,10,4,10,4,10C4,10,4,11,4,11C4,11,10.000119999999999,11,10.000119999999999,11C10.000119999999999,11,10.000119999999999,10,10.000119999999999,10C10.000119999999999,10,10.000119999999999,10,10.000119999999999,10Z" fill="#7B899F" fill-opacity="1"/></g><g><path d="M2,3C2,2.44772,2.44772,2,3,2C3,2,13,2,13,2C13.5523,2,14,2.44772,14,3C14,3,14,13,14,13C14,13.5523,13.5523,14,13,14C13,14,3,14,3,14C2.44772,14,2,13.5523,2,13C2,13,2,3,2,3C2,3,2,3,2,3ZM3,3C3,3,3,5,3,5C3,5,13,5,13,5C13,5,13,3,13,3C13,3,3,3,3,3C3,3,3,3,3,3ZM3,6C3,6,3,13,3,13C3,13,13,13,13,13C13,13,13,6,13,6C13,6,3,6,3,6C3,6,3,6,3,6Z" fill="#7B899F" fill-opacity="1"/></g></g></svg>