<svg xmlns="http://www.w3.org/2000/svg" xmlns:xlink="http://www.w3.org/1999/xlink" fill="none" version="1.1" width="16" height="16" viewBox="0 0 16 16"><defs><clipPath id="master_svg0_0_208"><rect x="0" y="0" width="16" height="16" rx="0"/></clipPath></defs><g clip-path="url(#master_svg0_0_208)"><g><path d="M2,3C2,2.447718,2.447718,2,3,2C3,2,13,2,13,2C13.5522,2,14,2.447692,14,3C14,3,14,13,14,13C14,13.5522,13.5522,14,13,14C13,14,3,14,3,14C2.447692,14,2,13.5522,2,13C2,13,2,3,2,3C2,3,2,3,2,3ZM13,3C13,3,3,3,3,3C3,3,3,13,3,13C3,13,13,13,13,13C13,13,13,3,13,3C13,3,13,3,13,3Z" fill-rule="evenodd" fill="#7B899F" fill-opacity="1"/></g><g><path d="M5.625,13C5.625,13,5.625,3,5.625,3C5.625,3,6.625,3,6.625,3C6.625,3,6.625,13,6.625,13C6.625,13,5.625,13,5.625,13C5.625,13,5.625,13,5.625,13Z" fill-rule="evenodd" fill="#7B899F" fill-opacity="1"/></g><g><path d="M9.375,13C9.375,13,9.375,3,9.375,3C9.375,3,10.375,3,10.375,3C10.375,3,10.375,13,10.375,13C10.375,13,9.375,13,9.375,13C9.375,13,9.375,13,9.375,13Z" fill-rule="evenodd" fill="#7B899F" fill-opacity="1"/></g><g><path d="M3,5.625C3,5.625,13,5.625,13,5.625C13,5.625,13,6.625,13,6.625C13,6.625,3,6.625,3,6.625C3,6.625,3,5.625,3,5.625C3,5.625,3,5.625,3,5.625Z" fill-rule="evenodd" fill="#7B899F" fill-opacity="1"/></g><g><path d="M3,9.375C3,9.375,13,9.375,13,9.375C13,9.375,13,10.375,13,10.375C13,10.375,3,10.375,3,10.375C3,10.375,3,9.375,3,9.375C3,9.375,3,9.375,3,9.375Z" fill-rule="evenodd" fill="#7B899F" fill-opacity="1"/></g></g></svg>