<svg xmlns="http://www.w3.org/2000/svg" xmlns:xlink="http://www.w3.org/1999/xlink" fill="none" version="1.1" width="16" height="16" viewBox="0 0 16 16"><defs><clipPath id="master_svg0_0_123"><rect x="0" y="0" width="16" height="16" rx="0"/></clipPath></defs><g clip-path="url(#master_svg0_0_123)"><g><path d="M14,3.5C14,3.5,14,12.5,14,12.5C14,12.5,2,12.5,2,12.5C2,12.5,2,3.5,2,3.5C2,3.5,14,3.5,14,3.5C14,3.5,14,3.5,14,3.5ZM2,2.5C1.44772,2.5,1,2.94772,1,3.5C1,3.5,1,12.5,1,12.5C1,13.0523,1.44772,13.5,2,13.5C2,13.5,14,13.5,14,13.5C14.5523,13.5,15,13.0523,15,12.5C15,12.5,15,3.5,15,3.5C15,2.94772,14.5523,2.5,14,2.5C14,2.5,2,2.5,2,2.5C2,2.5,2,2.5,2,2.5Z" fill="#7B899F" fill-opacity="1"/></g><g><path d="M14,7.5C14,7.5,2,7.5,2,7.5C2,7.5,2,6.5,2,6.5C2,6.5,14,6.5,14,6.5C14,6.5,14,7.5,14,7.5C14,7.5,14,7.5,14,7.5Z" fill-rule="evenodd" fill="#7B899F" fill-opacity="1"/></g><g><path d="M4,5.5C4,5.5,3,5.5,3,5.5C3,5.5,3,4.5,3,4.5C3,4.5,4,4.5,4,4.5C4,4.5,4,5.5,4,5.5C4,5.5,4,5.5,4,5.5Z" fill-rule="evenodd" fill="#7B899F" fill-opacity="1"/></g><g><path d="M11,5.5C11,5.5,5,5.5,5,5.5C5,5.5,5,4.5,5,4.5C5,4.5,11,4.5,11,4.5C11,4.5,11,5.5,11,5.5C11,5.5,11,5.5,11,5.5Z" fill-rule="evenodd" fill="#7B899F" fill-opacity="1"/></g></g></svg>