<svg xmlns="http://www.w3.org/2000/svg" xmlns:xlink="http://www.w3.org/1999/xlink" fill="none" version="1.1" width="16" height="16" viewBox="0 0 16 16"><defs><clipPath id="master_svg0_0_65"><rect x="0" y="0" width="16" height="16" rx="0"/></clipPath></defs><g clip-path="url(#master_svg0_0_65)"><g><path d="M1,2C1,1.447715,1.447715,1,2,1C2,1,9,1,9,1C9.55229,1,10,1.447715,10,2C10,2,10,9,10,9C10,9.55229,9.55229,10,9,10C9,10,2,10,2,10C1.447715,10,1,9.55229,1,9C1,9,1,2,1,2C1,2,1,2,1,2ZM9,2C9,2,2,2,2,2C2,2,2,9,2,9C2,9,9,9,9,9C9,9,9,2,9,2C9,2,9,2,9,2Z" fill-rule="evenodd" fill="#7B899F" fill-opacity="1"/></g><g><path d="M10,6C7.79086,6,6,7.79086,6,10C6,12.20914,7.79086,14,10,14C12.20914,14,14,12.20914,14,10C14,7.79086,12.20914,6,10,6C10,6,10,6,10,6ZM5,10C5,7.23858,7.23858,5,10,5C12.761420000000001,5,15,7.23858,15,10C15,12.761420000000001,12.761420000000001,15,10,15C7.23858,15,5,12.761420000000001,5,10C5,10,5,10,5,10Z" fill-rule="evenodd" fill="#7B899F" fill-opacity="1"/></g></g></svg>