<svg xmlns="http://www.w3.org/2000/svg" xmlns:xlink="http://www.w3.org/1999/xlink" fill="none" version="1.1" width="16" height="16" viewBox="0 0 16 16"><defs><clipPath id="master_svg0_0_280"><rect x="0" y="0" width="16" height="16" rx="0"/></clipPath></defs><g clip-path="url(#master_svg0_0_280)"><g><path d="M1,1C1,0.447715,1.447715,0,2,0C2,0,14,0,14,0C14.5523,0,15,0.447715,15,1C15,1,15,15,15,15C15,15.5523,14.5523,16,14,16C14,16,2,16,2,16C1.447715,16,1,15.5523,1,15C1,15,1,1,1,1C1,1,1,1,1,1ZM14,1C14,1,2,1,2,1C2,1,2,15,2,15C2,15,14,15,14,15C14,15,14,1,14,1C14,1,14,1,14,1Z" fill-rule="evenodd" fill="#7B899F" fill-opacity="1"/></g><g><path d="M14.5,4C14.5,4,1.5,4,1.5,4C1.5,4,1.5,3,1.5,3C1.5,3,14.5,3,14.5,3C14.5,3,14.5,4,14.5,4C14.5,4,14.5,4,14.5,4Z" fill-rule="evenodd" fill="#7B899F" fill-opacity="1"/></g><g><path d="M7.9999944140625,5.28399658203125C5.7356344140625,5.28402733053125,3.9000244140625,7.11965658203125,3.9000244140625,9.38401658203125L3.9000244140625,9.49996658203125C3.9000244140625,11.764316582031249,5.7356944140625,13.59998658203125,8.0000444140625,13.59998658203125C10.2644344140625,13.59998658203125,12.1000244140625,11.764316582031249,12.1000244140625,9.49996658203125L12.1000244140625,9.38401658203125C12.1000244140625,7.11963658203125,10.2643744140625,5.28399658203125,7.9999944140625,5.28399658203125ZM9.7679144140625,9.052136582031249C9.7001844140625,8.03390658203125,9.3667644140625,7.02985658203125,8.7675544140625,6.15283258203125C10.1267944140625,6.47445658203125,11.163094414062499,7.63175658203125,11.303994414062501,9.052136582031249L9.7679144140625,9.052136582031249ZM6.2320644140625,9.052136582031249L4.6961114140625,9.052136582031249C4.8370374140625,7.631796582031249,5.8732344140625,6.47453658203125,7.232404414062501,6.15286558203125C6.6332144140625005,7.02988658203125,6.2998044140625,8.033926582031249,6.2320644140625,9.052136582031249ZM8.986204414062499,9.052136582031249L7.0137744140625,9.052136582031249C7.0853744140625,8.12001658203125,7.4141444140625,7.20415658203125,7.9999944140625,6.41964658203125C8.5858444140625,7.20415658203125,8.9146144140625,8.12001658203125,8.986204414062499,9.052136582031249ZM7.2324144140625,12.73115658203125C5.8732444140624995,12.409496582031249,4.8370374140625,11.252216582031249,4.6961104140625,9.83184658203125L6.2320644140625,9.83184658203125C6.2998044140625,10.85005658203125,6.6332244140625,11.85410658203125,7.2324144140625,12.73115658203125ZM7.9999944140625,12.46436658203125C7.4141444140625,11.67982658203125,7.0853744140625,10.76395658203125,7.0137744140625,9.83184658203125L8.986204414062499,9.83184658203125C8.9146144140625,10.76395658203125,8.5858444140625,11.67982658203125,7.9999944140625,12.46436658203125ZM8.7675544140625,12.73115658203125C9.3667544140625,11.85411658203125,9.7001844140625,10.85005658203125,9.7679144140625,9.83184658203125L11.303994414062501,9.83184658203125C11.163094414062499,11.252216582031249,10.1267944140625,12.40950658203125,8.7675544140625,12.73115658203125Z" fill-rule="evenodd" fill="#7B899F" fill-opacity="1"/></g></g></svg>