<svg xmlns="http://www.w3.org/2000/svg" xmlns:xlink="http://www.w3.org/1999/xlink" fill="none" version="1.1" width="16" height="16" viewBox="0 0 16 16"><defs><clipPath id="master_svg0_0_266"><rect x="0" y="0" width="16" height="16" rx="0"/></clipPath></defs><g clip-path="url(#master_svg0_0_266)"><g><path d="M10,8C11.1046,8,12,7.10457,12,6C12,4.89543,11.1046,4,10,4C8.89543,4,8,4.89543,8,6C8,7.10457,8.89543,8,10,8C10,8,10,8,10,8ZM10,7C9.44772,7,9,6.55228,9,6C9,5.44772,9.44772,5,10,5C10.552299999999999,5,11,5.44772,11,6C11,6.55228,10.552299999999999,7,10,7C10,7,10,7,10,7Z" fill="#7B899F" fill-opacity="1"/></g><g><path d="M2,13C2,13.5523,2.44772,14,3,14C3,14,13,14,13,14C13.5523,14,14,13.5523,14,13C14,13,14,3,14,3C14,2.44772,13.5523,2,13,2C13,2,3,2,3,2C2.44772,2,2,2.44771,2,3C2,3,2,13,2,13C2,13,2,13,2,13ZM3,11.7071C3,11.7071,6,8.70711,6,8.70711C6,8.70711,10.2929,13,10.2929,13C10.2929,13,3,13,3,13C3,13,3,11.7071,3,11.7071C3,11.7071,3,11.7071,3,11.7071ZM3,10.2929C3,10.2929,3,3,3,3C3,3,13,3,13,3C13,3,13,13,13,13C13,13,11.7071,13,11.7071,13C11.7071,13,6,7.29289,6,7.29289C6,7.29289,3,10.2929,3,10.2929C3,10.2929,3,10.2929,3,10.2929Z" fill="#7B899F" fill-opacity="1"/></g></g></svg>