<svg xmlns="http://www.w3.org/2000/svg" xmlns:xlink="http://www.w3.org/1999/xlink" fill="none" version="1.1" width="16" height="16" viewBox="0 0 16 16"><defs><clipPath id="master_svg0_0_133"><rect x="0" y="0" width="16" height="16" rx="0"/></clipPath></defs><g clip-path="url(#master_svg0_0_133)"><g><path d="M1,5C1,4.447718,1.447718,4,2,4C2,4,14,4,14,4C14.5522,4,15,4.447692,15,5C15,5,15,11,15,11C15,11.552240000000001,14.5522,12,14,12C14,12,2,12,2,12C1.447692,12,1,11.55222,1,11C1,11,1,5,1,5C1,5,1,5,1,5ZM14,5C14,5,2,5,2,5C2,5,2,11,2,11C2,11,14,11,14,11C14,11,14,5,14,5C14,5,14,5,14,5Z" fill-rule="evenodd" fill="#7B899F" fill-opacity="1"/></g><g><path d="M5,6C5,6,4,6,4,6C4,6,4,10,4,10C4,10,5,10,5,10C5,10,5,6,5,6C5,6,5,6,5,6Z" fill="#7B899F" fill-opacity="1"/></g></g></svg>