<svg xmlns="http://www.w3.org/2000/svg" xmlns:xlink="http://www.w3.org/1999/xlink" fill="none" version="1.1" width="16" height="16" viewBox="0 0 16 16"><defs><clipPath id="master_svg0_0_175"><rect x="0" y="0" width="16" height="16" rx="0"/></clipPath></defs><g clip-path="url(#master_svg0_0_175)"><g><path d="M0,5C0,4.447719,0.447714,4,1,4C1,4,15,4,15,4C15.5522,4,16,4.447692,16,5C16,5,16,11,16,11C16,11.552240000000001,15.5522,12,15,12C15,12,1,12,1,12C0.447688,12,0,11.55222,0,11C0,11,0,5,0,5C0,5,0,5,0,5ZM15,5C15,5,1,5,1,5C1,5,1,11,1,11C1,11,15,11,15,11C15,11,15,5,15,5C15,5,15,5,15,5Z" fill-rule="evenodd" fill="#7B899F" fill-opacity="1"/></g><g><path d="M15,8C15,8,15,11,15,11C15,11,12,11,12,11C12,11,15,8,15,8C15,8,15,8,15,8Z" fill="#7B899F" fill-opacity="1"/></g><g><path d="M4,6C4,6,3,6,3,6C3,6,3,10,3,10C3,10,4,10,4,10C4,10,4,6,4,6C4,6,4,6,4,6Z" fill="#7B899F" fill-opacity="1"/></g></g></svg>