<svg xmlns="http://www.w3.org/2000/svg" xmlns:xlink="http://www.w3.org/1999/xlink" fill="none" version="1.1" width="16" height="16" viewBox="0 0 16 16"><defs><clipPath id="master_svg0_0_308"><rect x="0" y="0" width="16" height="16" rx="0"/></clipPath></defs><g clip-path="url(#master_svg0_0_308)"><g><path d="M2,2.999880075454712C2,2.447598075454712,2.447718,1.999880075454712,3,1.999880075454712C3,1.999880075454712,13,1.999880075454712,13,1.999880075454712C13.5522,1.999880075454712,14,2.447572075454712,14,2.999880075454712C14,2.999880075454712,14,12.999880075454712,14,12.999880075454712C14,13.552180075454713,13.5522,13.999880075454712,13,13.999880075454712C13,13.999880075454712,3,13.999880075454712,3,13.999880075454712C2.447692,13.999880075454712,2,13.552080075454711,2,12.999880075454712C2,12.999880075454712,2,2.999880075454712,2,2.999880075454712C2,2.999880075454712,2,2.999880075454712,2,2.999880075454712ZM13,2.999880075454712C13,2.999880075454712,3,2.999880075454712,3,2.999880075454712C3,2.999880075454712,3,12.999880075454712,3,12.999880075454712C3,12.999880075454712,13,12.999880075454712,13,12.999880075454712C13,12.999880075454712,13,2.999880075454712,13,2.999880075454712C13,2.999880075454712,13,2.999880075454712,13,2.999880075454712Z" fill-rule="evenodd" fill="#7B899F" fill-opacity="1"/></g><g><path d="M4.85689,6.865010016174317C4.85689,6.865010016174317,4.85689,6.571290016174316,4.85689,6.571290016174316C4.85689,6.571290016174316,5.42814,6.571290016174316,5.42814,6.571290016174316C5.42814,6.571290016174316,5.42814,8.857000016174316,5.42814,8.857000016174316C5.42814,8.857000016174316,6.28503,8.857000016174316,6.28503,8.857000016174316C6.28503,8.857000016174316,6.28503,9.428430016174316,6.28503,9.428430016174316C6.28503,9.428430016174316,4,9.428430016174316,4,9.428430016174316C4,9.428430016174316,4,8.857000016174316,4,8.857000016174316C4,8.857000016174316,4.85689,8.857000016174316,4.85689,8.857000016174316C4.85689,8.857000016174316,4.85689,7.436440016174316,4.85689,7.436440016174316C4.85689,7.436440016174316,4.21472,7.436440016174316,4.21472,7.436440016174316C4.21472,7.436440016174316,4.21472,6.865010016174317,4.21472,6.865010016174317C4.21472,6.865010016174317,4.85689,6.865010016174317,4.85689,6.865010016174317C4.85689,6.865010016174317,4.85689,6.865010016174317,4.85689,6.865010016174317Z" fill-rule="evenodd" fill="#7B899F" fill-opacity="1"/></g><g><path d="M6.859379768371582,7.142720016174317C6.859379768371582,7.142720016174317,6.859379768371582,6.571290016174316,6.859379768371582,6.571290016174316C6.859379768371582,6.571290016174316,8.581539768371583,6.571290016174316,8.581539768371583,6.571290016174316C8.897079768371583,6.571290016174316,9.152879768371582,6.827090016174316,9.152879768371582,7.142630016174317C9.152879768371582,7.142630016174317,9.152879768371582,7.714230016174317,9.152879768371582,7.714230016174317C9.152879768371582,8.029780016174316,8.897079768371583,8.285580016174316,8.581529768371581,8.285580016174316C8.581529768371581,8.285580016174316,7.4350997683715825,8.285580016174316,7.4350997683715825,8.285580016174316C7.4350997683715825,8.285580016174316,7.4350997683715825,8.857000016174316,7.4350997683715825,8.857000016174316C7.4350997683715825,8.857000016174316,9.152799768371581,8.857000016174316,9.152799768371581,8.857000016174316C9.152799768371581,8.857000016174316,9.152799768371581,9.428430016174316,9.152799768371581,9.428430016174316C9.152799768371581,9.428430016174316,6.859379768371582,9.428430016174316,6.859379768371582,9.428430016174316C6.859379768371582,9.428430016174316,6.859379768371582,8.285490016174316,6.859379768371582,8.285490016174316C6.859379768371582,7.969950016174316,7.115169768371582,7.714150016174316,7.430719768371582,7.714150016174316C7.430719768371582,7.714150016174316,8.581619768371581,7.714150016174316,8.581619768371581,7.714150016174316C8.581619768371581,7.714150016174316,8.581619768371581,7.142720016174317,8.581619768371581,7.142720016174317C8.581619768371581,7.142720016174317,6.859379768371582,7.142720016174317,6.859379768371582,7.142720016174317C6.859379768371582,7.142720016174317,6.859379768371582,7.142720016174317,6.859379768371582,7.142720016174317Z" fill-rule="evenodd" fill="#7B899F" fill-opacity="1"/></g><g><path d="M11.4264,7.142720016174317C11.4264,7.142720016174317,9.71875,7.142720016174317,9.71875,7.142720016174317C9.71875,7.142720016174317,9.71875,6.571290016174316,9.71875,6.571290016174316C9.71875,6.571290016174316,11.4264,6.571290016174316,11.4264,6.571290016174316C11.7419,6.571290016174316,11.9977,6.827090016174316,11.9977,7.142630016174317C11.9977,7.142630016174317,11.9977,8.857090016174316,11.9977,8.857090016174316C11.9977,9.172630016174317,11.7419,9.428430016174316,11.4264,9.428430016174316C11.4264,9.428430016174316,9.71875,9.428430016174316,9.71875,9.428430016174316C9.71875,9.428430016174316,9.71875,8.857000016174316,9.71875,8.857000016174316C9.71875,8.857000016174316,11.4264,8.857000016174316,11.4264,8.857000016174316C11.4264,8.857000016174316,11.4264,8.285570016174317,11.4264,8.285570016174317C11.4264,8.285570016174317,10.2855,8.285580016174316,10.2855,8.285580016174316C10.2855,8.285580016174316,10.2855,7.714150016174316,10.2855,7.714150016174316C10.2855,7.714150016174316,11.4264,7.714150016174316,11.4264,7.714150016174316C11.4264,7.714150016174316,11.4264,7.142720016174317,11.4264,7.142720016174317C11.4264,7.142720016174317,11.4264,7.142720016174317,11.4264,7.142720016174317Z" fill-rule="evenodd" fill="#7B899F" fill-opacity="1"/></g></g></svg>