<svg xmlns="http://www.w3.org/2000/svg" xmlns:xlink="http://www.w3.org/1999/xlink" fill="none" version="1.1" width="16" height="16" viewBox="0 0 16 16"><defs><clipPath id="master_svg0_0_26"><rect x="0" y="0" width="16" height="16" rx="0"/></clipPath></defs><g clip-path="url(#master_svg0_0_26)"><g><path d="M14.853546585655213,3.353553704864502C14.853546585655213,3.353553704864502,9.022786585655211,9.184316704864502,9.022786585655211,9.184316704864502C9.022786585655211,9.184316704864502,5.022786585655212,5.684316704864502,5.022786585655212,5.684316704864502C5.022786585655212,5.684316704864502,1.8535535856552126,8.853556704864502,1.8535535856552126,8.853556704864502C1.8535535856552126,8.853556704864502,1.1464465856552124,8.146446704864502,1.1464465856552124,8.146446704864502C1.1464465856552124,8.146446704864502,4.977216585655212,4.315676704864502,4.977216585655212,4.315676704864502C4.977216585655212,4.315676704864502,8.977216585655214,7.815676704864502,8.977216585655214,7.815676704864502C8.977216585655214,7.815676704864502,14.146446585655212,2.646446704864502,14.146446585655212,2.646446704864502C14.146446585655212,2.646446704864502,14.853546585655213,3.353553704864502,14.853546585655213,3.353553704864502C14.853546585655213,3.353553704864502,14.853546585655213,3.353553704864502,14.853546585655213,3.353553704864502Z" fill-rule="evenodd" fill="#7B899F" fill-opacity="1"/></g><g><path d="M15,14C15,14,1,14,1,14C1,14,1,13,1,13C1,13,15,13,15,13C15,13,15,14,15,14C15,14,15,14,15,14Z" fill-rule="evenodd" fill="#7B899F" fill-opacity="1"/></g></g></svg>