<svg xmlns="http://www.w3.org/2000/svg" xmlns:xlink="http://www.w3.org/1999/xlink" fill="none" version="1.1" width="16" height="16" viewBox="0 0 16 16"><defs><clipPath id="master_svg0_0_270"><rect x="0" y="0" width="16" height="16" rx="0"/></clipPath></defs><g clip-path="url(#master_svg0_0_270)"><g><path d="M4,4.0000200271606445C4,4.0000200271606445,7,4.0000200271606445,7,4.0000200271606445C7,4.0000200271606445,7,5.0000200271606445,7,5.0000200271606445C7,5.0000200271606445,4,5.0000200271606445,4,5.0000200271606445C2.34315,5.0000200271606445,1,6.3431600271606445,1,8.000020027160645C1,9.656870027160645,2.34315,11.000000027160645,4,11.000000027160645C4,11.000000027160645,7,11.000000027160645,7,11.000000027160645C7,11.000000027160645,7,12.000000027160645,7,12.000000027160645C7,12.000000027160645,4,12.000000027160645,4,12.000000027160645C1.79086,12.000000027160645,0,10.209200027160644,0,8.000020027160645C0,5.790880027160645,1.79086,4.0000200271606445,4,4.0000200271606445C4,4.0000200271606445,4,4.0000200271606445,4,4.0000200271606445Z" fill="#7B899F" fill-opacity="1"/></g><g><path d="M12,11.000000027160645C12,11.000000027160645,9,11.000000027160645,9,11.000000027160645C9,11.000000027160645,9,12.000000027160645,9,12.000000027160645C9,12.000000027160645,12,12.000000027160645,12,12.000000027160645C14.2091,12.000000027160645,16,10.209200027160644,16,8.000020027160645C16,5.790880027160645,14.2091,4.0000200271606445,12,4.0000200271606445C12,4.0000200271606445,9,4.0000200271606445,9,4.0000200271606445C9,4.0000200271606445,9,5.0000200271606445,9,5.0000200271606445C9,5.0000200271606445,12,5.0000200271606445,12,5.0000200271606445C13.6569,5.0000200271606445,15,6.3431600271606445,15,8.000020027160645C15,9.656870027160645,13.6569,11.000000027160645,12,11.000000027160645C12,11.000000027160645,12,11.000000027160645,12,11.000000027160645Z" fill="#7B899F" fill-opacity="1"/></g><g><path d="M5.000239849090576,7.500199794769287C5.000239849090576,7.500199794769287,11.000199849090576,7.500199794769287,11.000199849090576,7.500199794769287C11.000199849090576,7.500199794769287,11.000199849090576,8.500199794769287,11.000199849090576,8.500199794769287C11.000199849090576,8.500199794769287,5.000239849090576,8.500199794769287,5.000239849090576,8.500199794769287C5.000239849090576,8.500199794769287,5.000239849090576,7.500199794769287,5.000239849090576,7.500199794769287C5.000239849090576,7.500199794769287,5.000239849090576,7.500199794769287,5.000239849090576,7.500199794769287Z" fill="#7B899F" fill-opacity="1"/></g></g></svg>