<svg xmlns="http://www.w3.org/2000/svg" xmlns:xlink="http://www.w3.org/1999/xlink" fill="none" version="1.1" width="16" height="16" viewBox="0 0 16 16"><defs><clipPath id="master_svg0_0_106"><rect x="0" y="0" width="16" height="16" rx="0"/></clipPath></defs><g clip-path="url(#master_svg0_0_106)"><g><path d="M1,4C1,3.447718,1.447718,3,2,3C2,3,14,3,14,3C14.5522,3,15,3.447692,15,4C15,4,15,12,15,12C15,12.55224,14.5522,13,14,13C14,13,2,13,2,13C1.447692,13,1,12.55222,1,12C1,12,1,4,1,4C1,4,1,4,1,4ZM14,4C14,4,2,4,2,4C2,4,2,12,2,12C2,12,14,12,14,12C14,12,14,4,14,4C14,4,14,4,14,4Z" fill-rule="evenodd" fill="#7B899F" fill-opacity="1"/></g><g><path d="M12.499999837036132,5.999989986419678C12.499999837036132,5.999989986419678,6.499879837036133,5.999989986419678,6.499879837036133,5.999989986419678C6.499879837036133,5.999989986419678,6.499879837036133,6.999989986419678,6.499879837036133,6.999989986419678C6.499879837036133,6.999989986419678,12.499999837036132,6.999989986419678,12.499999837036132,6.999989986419678C12.499999837036132,6.999989986419678,12.499999837036132,5.999989986419678,12.499999837036132,5.999989986419678C12.499999837036132,5.999989986419678,12.499999837036132,5.999989986419678,12.499999837036132,5.999989986419678Z" fill="#7B899F" fill-opacity="1"/></g><g><path d="M4.999879950180054,5.999989986419678C4.999879950180054,5.999989986419678,3.5004899501800537,5.999989986419678,3.5004899501800537,5.999989986419678C3.5004899501800537,5.999989986419678,3.5004899501800537,6.999989986419678,3.5004899501800537,6.999989986419678C3.5004899501800537,6.999989986419678,4.999879950180054,6.999989986419678,4.999879950180054,6.999989986419678C4.999879950180054,6.999989986419678,4.999879950180054,5.999989986419678,4.999879950180054,5.999989986419678C4.999879950180054,5.999989986419678,4.999879950180054,5.999989986419678,4.999879950180054,5.999989986419678Z" fill="#7B899F" fill-opacity="1"/></g><g><path d="M6.499879837036133,8.999970436096191C6.499879837036133,8.999970436096191,12.499999837036132,8.999970436096191,12.499999837036132,8.999970436096191C12.499999837036132,8.999970436096191,12.499999837036132,9.999970436096191,12.499999837036132,9.999970436096191C12.499999837036132,9.999970436096191,6.499879837036133,9.999970436096191,6.499879837036133,9.999970436096191C6.499879837036133,9.999970436096191,6.499879837036133,8.999970436096191,6.499879837036133,8.999970436096191C6.499879837036133,8.999970436096191,6.499879837036133,8.999970436096191,6.499879837036133,8.999970436096191Z" fill="#7B899F" fill-opacity="1"/></g><g><path d="M3.5004899501800537,8.999970436096191C3.5004899501800537,8.999970436096191,4.999879950180054,8.999970436096191,4.999879950180054,8.999970436096191C4.999879950180054,8.999970436096191,4.999879950180054,9.999970436096191,4.999879950180054,9.999970436096191C4.999879950180054,9.999970436096191,3.5004899501800537,9.999970436096191,3.5004899501800537,9.999970436096191C3.5004899501800537,9.999970436096191,3.5004899501800537,8.999970436096191,3.5004899501800537,8.999970436096191C3.5004899501800537,8.999970436096191,3.5004899501800537,8.999970436096191,3.5004899501800537,8.999970436096191Z" fill="#7B899F" fill-opacity="1"/></g></g></svg>