<svg xmlns="http://www.w3.org/2000/svg" xmlns:xlink="http://www.w3.org/1999/xlink" fill="none" version="1.1" width="16" height="16" viewBox="0 0 16 16"><defs><clipPath id="master_svg0_0_69"><rect x="0" y="0" width="16" height="16" rx="0"/></clipPath></defs><g clip-path="url(#master_svg0_0_69)"><g><path d="M4,4C4,4,7,4,7,4C7,4,7,5,7,5C7,5,4,5,4,5C2.34315,5,1,6.34315,1,8C1,9.65685,2.34315,11,4,11C4,11,7,11,7,11C7,11,7,12,7,12C7,12,4,12,4,12C1.79086,12,0,10.2091,0,8C0,5.79086,1.79086,4,4,4C4,4,4,4,4,4Z" fill="#7B899F" fill-opacity="1"/></g><g><path d="M12,11C12,11,9,11,9,11C9,11,9,12,9,12C9,12,12,12,12,12C14.2091,12,16,10.2091,16,8C16,5.79086,14.2091,4,12,4C12,4,9,4,9,4C9,4,9,5,9,5C9,5,12,5,12,5C13.6569,5,15,6.34315,15,8C15,9.65685,13.6569,11,12,11C12,11,12,11,12,11Z" fill="#7B899F" fill-opacity="1"/></g><g><path d="M0,8C0,5.79086,1.79086,4,4,4C4,4,7,4,7,4C7,4,7,5,7,5C7,5,4,5,4,5C2.34314,5,1,6.34314,1,8C1,9.65686,2.34314,11,4,11C4,11,7,11,7,11C7,11,7,12,7,12C7,12,4,12,4,12C1.79086,12,0,10.20914,0,8C0,8,0,8,0,8Z" fill-rule="evenodd" fill="#7B899F" fill-opacity="1"/></g><g><path d="M5.0358701606750484,6.97484001991272C5.0358701606750484,6.97484001991272,4.328770160675049,6.26773001991272,4.328770160675049,6.26773001991272C4.328770160675049,6.26773001991272,6.096530160675049,4.49999001991272,6.096530160675049,4.49999001991272C6.096530160675049,4.49999001991272,4.328770160675049,2.73222001991272,4.328770160675049,2.73222001991272C4.328770160675049,2.73222001991272,5.0358701606750484,2.0251200199127197,5.0358701606750484,2.0251200199127197C5.0358701606750484,2.0251200199127197,7.157190160675048,4.14644001991272,7.157190160675048,4.14644001991272C7.352460160675049,4.34170001991272,7.352450160675049,4.6582900199127195,7.157190160675048,4.85355001991272C7.157190160675048,4.85355001991272,5.0358701606750484,6.97484001991272,5.0358701606750484,6.97484001991272C5.0358701606750484,6.97484001991272,5.0358701606750484,6.97484001991272,5.0358701606750484,6.97484001991272Z" fill-rule="evenodd" fill="#7B899F" fill-opacity="1"/></g><g><path d="M10.97120066619873,9.02515983581543C10.97120066619873,9.02515983581543,11.67830066619873,9.73226983581543,11.67830066619873,9.73226983581543C11.67830066619873,9.73226983581543,9.91055066619873,11.49999983581543,9.91055066619873,11.49999983581543C9.91055066619873,11.49999983581543,11.67830066619873,13.26779983581543,11.67830066619873,13.26779983581543C11.67830066619873,13.26779983581543,10.97120066619873,13.97489983581543,10.97120066619873,13.97489983581543C10.97120066619873,13.97489983581543,8.849889666198731,11.85359983581543,8.849889666198731,11.85359983581543C8.65461936619873,11.65829983581543,8.65462936619873,11.34169983581543,8.849889666198731,11.14649983581543C8.849889666198731,11.14649983581543,10.97120066619873,9.02515983581543,10.97120066619873,9.02515983581543C10.97120066619873,9.02515983581543,10.97120066619873,9.02515983581543,10.97120066619873,9.02515983581543Z" fill-rule="evenodd" fill="#7B899F" fill-opacity="1"/></g></g></svg>