<svg xmlns="http://www.w3.org/2000/svg" xmlns:xlink="http://www.w3.org/1999/xlink" fill="none" version="1.1" width="16" height="16" viewBox="0 0 16 16"><defs><clipPath id="master_svg0_0_151"><rect x="0" y="0" width="16" height="16" rx="0"/></clipPath></defs><g clip-path="url(#master_svg0_0_151)"><g><path d="M9.13409,3.0000003038137777C9.264199999999999,2.2004603038137778,9.014420000000001,1.3603603038137777,8.41083,0.7567713038137777C7.4018,-0.2522566961862223,5.76584,-0.2522566961862223,4.75681,0.7567723038137777C4.153230000000001,1.3603603038137777,3.9034500000000003,2.2004603038137778,4.03355,3.0000003038137777C4.03355,3.0000003038137777,4,3.0000003038137777,4,3.0000003038137777C2.89543,3.0000003038137777,2,3.895430303813778,2,5.000000303813778C2,5.000000303813778,2,13.000000303813778,2,13.000000303813778C2,14.104600303813777,2.89543,15.000000303813778,4,15.000000303813778C4,15.000000303813778,12,15.000000303813778,12,15.000000303813778C13.1046,15.000000303813778,14,14.104600303813777,14,13.000000303813778C14,13.000000303813778,14,5.000000303813778,14,5.000000303813778C14,3.895430303813778,13.1046,3.0000003038137777,12,3.0000003038137777C12,3.0000003038137777,9.13409,3.0000003038137777,9.13409,3.0000003038137777C9.13409,3.0000003038137777,9.13409,3.0000003038137777,9.13409,3.0000003038137777ZM6.77031,6.901350303813778C6.77031,6.901350303813778,8.71968,4.037750303813778,8.71968,4.037750303813778C8.72821,4.025220303813778,8.73662,4.012630303813777,8.744900000000001,4.000000303813778C8.744900000000001,4.000000303813778,12,4.000000303813778,12,4.000000303813778C12.0896,4.000000303813778,12.1764,4.011780303813778,12.259,4.033870303813778C12.259,4.033870303813778,3.0338700000000003,13.259000303813778,3.0338700000000003,13.259000303813778C3.01178,13.176400303813777,3,13.089600303813778,3,13.000000303813778C3,13.000000303813778,3,5.000000303813778,3,5.000000303813778C3,4.447720303813778,3.44772,4.000000303813778,4,4.000000303813778C4,4.000000303813778,4.42274,4.000000303813778,4.42274,4.000000303813778C4.43102,4.012630303813777,4.43943,4.025220303813778,4.44796,4.037750303813778C4.44796,4.037750303813778,6.39733,6.901350303813778,6.39733,6.901350303813778C6.48687,7.032880303813777,6.68077,7.032880303813777,6.77031,6.901350303813778C6.77031,6.901350303813778,6.77031,6.901350303813778,6.77031,6.901350303813778ZM7.75072,2.5783403038137775C7.75072,3.2226703038137776,7.22839,3.745010303813778,6.58406,3.745010303813778C5.9397199999999994,3.745010303813778,5.41739,3.2226703038137776,5.41739,2.5783403038137775C5.41739,1.9340103038137777,5.9397199999999994,1.4116703038137777,6.58406,1.4116703038137777C7.22839,1.4116703038137777,7.75072,1.9340103038137777,7.75072,2.5783403038137775C7.75072,2.5783403038137775,7.75072,2.5783403038137775,7.75072,2.5783403038137775ZM4,14.000000303813778C3.9104200000000002,14.000000303813778,3.8236,13.988200303813779,3.74099,13.966100303813779C3.74099,13.966100303813779,8.00004,9.707080303813777,8.00004,9.707080303813777C8.00004,9.707080303813777,12.2591,13.966100303813779,12.2591,13.966100303813779C12.1764,13.988200303813779,12.0896,14.000000303813778,12,14.000000303813778C12,14.000000303813778,4,14.000000303813778,4,14.000000303813778C4,14.000000303813778,4,14.000000303813778,4,14.000000303813778ZM12.9661,13.259000303813778C12.9661,13.259000303813778,8.707139999999999,8.999980303813778,8.707139999999999,8.999980303813778C8.707139999999999,8.999980303813778,12.9661,4.740990303813778,12.9661,4.740990303813778C12.9882,4.823600303813778,13,4.910420303813778,13,5.000000303813778C13,5.000000303813778,13,13.000000303813778,13,13.000000303813778C13,13.089600303813778,12.9882,13.176400303813777,12.9661,13.259000303813778C12.9661,13.259000303813778,12.9661,13.259000303813778,12.9661,13.259000303813778Z" fill="#7B899F" fill-opacity="1"/></g></g></svg>