<svg xmlns="http://www.w3.org/2000/svg" xmlns:xlink="http://www.w3.org/1999/xlink" fill="none" version="1.1" width="16" height="16" viewBox="0 0 16 16"><defs><clipPath id="master_svg0_0_8"><rect x="0" y="0" width="16" height="16" rx="0"/></clipPath></defs><g clip-path="url(#master_svg0_0_8)"><g><path d="M11,5.65C11,4.7333300000000005,10.2588,4,9.34118,4C9.324629999999999,4,9.30813,4.000240011,9.29167,4.000710011C9.29167,4.000710011,9.25,4,9.25,4C8.2835,4,7.5,4.7835,7.5,5.75C7.5,5.75,7.5,7.75,7.5,7.75C7.5,8.16421,7.164210000000001,8.5,6.75,8.5C6.33579,8.5,6,8.16421,6,7.75C6,7.335789999999999,6.33579,7,6.75,7C6.75,7,6.75,6,6.75,6C5.7835,6,5,6.7835,5,7.75C5,7.76678,5.000240011,7.7835,5.000710011,7.80017C5.000710011,7.80017,5,7.85,5,7.85C5,8.766670000000001,5.74118,9.5,6.65882,9.5C6.67504,9.5,6.69121,9.49977,6.70733,9.49932C6.70733,9.49932,6.75,9.5,6.75,9.5C7.7165,9.5,8.5,8.7165,8.5,7.75C8.5,7.75,8.5,5.75,8.5,5.75C8.5,5.33579,8.83579,5,9.25,5C9.66421,5,10,5.33579,10,5.75C10,6.164210000000001,9.66421,6.5,9.25,6.5C9.25,6.5,9.25,7.5,9.25,7.5C10.2165,7.5,11,6.7165,11,5.75C11,5.73364,10.9998,5.71734,10.9993,5.70108C10.9993,5.70108,11,5.65,11,5.65C11,5.65,11,5.65,11,5.65Z" fill="#7B899F" fill-opacity="1"/></g><g><path d="M13,2C13,2,13,14,13,14C13,14,3,14,3,14C3,14,3,2,3,2C3,2,13,2,13,2C13,2,13,2,13,2ZM3,1C2.44772,1,2,1.44772,2,2C2,2,2,14,2,14C2,14.5523,2.44772,15,3,15C3,15,13,15,13,15C13.5523,15,14,14.5523,14,14C14,14,14,2,14,2C14,1.44772,13.5523,1,13,1C13,1,3,1,3,1C3,1,3,1,3,1Z" fill="#7B899F" fill-opacity="1"/></g><g><path d="M10,11.5C10,11.5,10,12.5,10,12.5C10,12.5,6,12.5,6,12.5C6,12.5,6,11.5,6,11.5C6,11.5,10,11.5,10,11.5C10,11.5,10,11.5,10,11.5Z" fill="#7B899F" fill-opacity="1"/></g></g></svg>