<svg xmlns="http://www.w3.org/2000/svg" xmlns:xlink="http://www.w3.org/1999/xlink" fill="none" version="1.1" width="16" height="16" viewBox="0 0 16 16"><defs><clipPath id="master_svg0_0_100"><rect x="0" y="0" width="16" height="16" rx="0"/></clipPath></defs><g clip-path="url(#master_svg0_0_100)"><g><path d="M1,4C1,3.447718,1.447718,3,2,3C2,3,14,3,14,3C14.5522,3,15,3.447692,15,4C15,4,15,12,15,12C15,12.55224,14.5522,13,14,13C14,13,2,13,2,13C1.447692,13,1,12.55222,1,12C1,12,1,4,1,4C1,4,1,4,1,4ZM14,4C14,4,2,4,2,4C2,4,2,12,2,12C2,12,14,12,14,12C14,12,14,4,14,4C14,4,14,4,14,4Z" fill-rule="evenodd" fill="#7B899F" fill-opacity="1"/></g><g><path d="M12,6C12,6,4,6,4,6C4,6,4,5,4,5C4,5,12,5,12,5C12,5,12,6,12,6C12,6,12,6,12,6Z" fill-rule="evenodd" fill="#7B899F" fill-opacity="1"/></g><g><path d="M12,11C12,11,9,11,9,11C9,11,9,10,9,10C9,10,12,10,12,10C12,10,12,11,12,11C12,11,12,11,12,11Z" fill-rule="evenodd" fill="#7B899F" fill-opacity="1"/></g><g><path d="M12,8.5C12,8.5,4,8.5,4,8.5C4,8.5,4,7.5,4,7.5C4,7.5,12,7.5,12,7.5C12,7.5,12,8.5,12,8.5C12,8.5,12,8.5,12,8.5Z" fill-rule="evenodd" fill="#7B899F" fill-opacity="1"/></g></g></svg>