<svg xmlns="http://www.w3.org/2000/svg" xmlns:xlink="http://www.w3.org/1999/xlink" fill="none" version="1.1" width="16" height="16" viewBox="0 0 16 16"><defs><clipPath id="master_svg0_0_293"><rect x="0" y="0" width="16" height="16" rx="0"/></clipPath></defs><g clip-path="url(#master_svg0_0_293)"><g><path d="M6.5,9C6.5,9,6.5,14.2244,6.5,14.2244C6.5,14.2244,5.5,14.2244,5.5,14.2244C5.5,14.2244,5.5,9,5.5,9C5.5,9,6.5,9,6.5,9C6.5,9,6.5,9,6.5,9Z" fill-rule="evenodd" fill="#7B899F" fill-opacity="1"/></g><g><path d="M10.5,10C10.5,10,10.5,14.2244,10.5,14.2244C10.5,14.2244,9.5,14.2244,9.5,14.2244C9.5,14.2244,9.5,10,9.5,10C9.5,10,10.5,10,10.5,10C10.5,10,10.5,10,10.5,10Z" fill-rule="evenodd" fill="#7B899F" fill-opacity="1"/></g><g><path d="M2.5,11C2.5,11,2.5,14.2244,2.5,14.2244C2.5,14.2244,1.5,14.2244,1.5,14.2244C1.5,14.2244,1.5,11,1.5,11C1.5,11,2.5,11,2.5,11C2.5,11,2.5,11,2.5,11Z" fill-rule="evenodd" fill="#7B899F" fill-opacity="1"/></g><g><path d="M14.5,7C14.5,7,14.5,14.2244,14.5,14.2244C14.5,14.2244,13.5,14.2244,13.5,14.2244C13.5,14.2244,13.5,7,13.5,7C13.5,7,14.5,7,14.5,7C14.5,7,14.5,7,14.5,7Z" fill-rule="evenodd" fill="#7B899F" fill-opacity="1"/></g><g><path d="M14.853546585655213,1.8535535856552126C14.853546585655213,1.8535535856552126,9.022786585655211,7.684316585655212,9.022786585655211,7.684316585655212C9.022786585655211,7.684316585655212,5.022786585655212,4.184316585655212,5.022786585655212,4.184316585655212C5.022786585655212,4.184316585655212,1.8535535856552126,7.3535565856552125,1.8535535856552126,7.3535565856552125C1.8535535856552126,7.3535565856552125,1.1464465856552124,6.646446585655212,1.1464465856552124,6.646446585655212C1.1464465856552124,6.646446585655212,4.977216585655212,2.815676585655212,4.977216585655212,2.815676585655212C4.977216585655212,2.815676585655212,8.977216585655214,6.315676585655212,8.977216585655214,6.315676585655212C8.977216585655214,6.315676585655212,14.146446585655212,1.1464465856552124,14.146446585655212,1.1464465856552124C14.146446585655212,1.1464465856552124,14.853546585655213,1.8535535856552126,14.853546585655213,1.8535535856552126C14.853546585655213,1.8535535856552126,14.853546585655213,1.8535535856552126,14.853546585655213,1.8535535856552126Z" fill-rule="evenodd" fill="#7B899F" fill-opacity="1"/></g></g></svg>