<svg xmlns="http://www.w3.org/2000/svg" xmlns:xlink="http://www.w3.org/1999/xlink" fill="none" version="1.1" width="16" height="16" viewBox="0 0 16 16"><defs><clipPath id="master_svg0_0_51"><rect x="0" y="0" width="16" height="16" rx="0"/></clipPath></defs><g clip-path="url(#master_svg0_0_51)"><g><path d="M14,10C14,10,2,10,2,10C2,10,2,9,2,9C2,9,14,9,14,9C14,9,14,10,14,10C14,10,14,10,14,10Z" fill-rule="evenodd" fill="#7B899F" fill-opacity="1"/></g><g><path d="M14,7C14,7,2,7,2,7C2,7,2,6,2,6C2,6,14,6,14,6C14,6,14,7,14,7C14,7,14,7,14,7Z" fill-rule="evenodd" fill="#7B899F" fill-opacity="1"/></g><g><path d="M14,4C14,4,2,4,2,4C2,4,2,3,2,3C2,3,14,3,14,3C14,3,14,4,14,4C14,4,14,4,14,4Z" fill-rule="evenodd" fill="#7B899F" fill-opacity="1"/></g><g><path d="M10,13C10,13,2,13,2,13C2,13,2,12,2,12C2,12,10,12,10,12C10,12,10,13,10,13C10,13,10,13,10,13Z" fill-rule="evenodd" fill="#7B899F" fill-opacity="1"/></g></g></svg>