<svg xmlns="http://www.w3.org/2000/svg" xmlns:xlink="http://www.w3.org/1999/xlink" fill="none" version="1.1" width="16" height="16" viewBox="0 0 16 16"><defs><clipPath id="master_svg0_0_15"><rect x="0" y="0" width="16" height="16" rx="0"/></clipPath></defs><g clip-path="url(#master_svg0_0_15)"><g><path d="M0,4C0,3.447719,0.447714,3,1,3C1,3,15,3,15,3C15.5522,3,16,3.447692,16,4C16,4,16,12,16,12C16,12.55224,15.5522,13,15,13C15,13,1,13,1,13C0.447688,13,0,12.55221,0,12C0,12,0,4,0,4C0,4,0,4,0,4ZM15,4C15,4,1,4,1,4C1,4,1,12,1,12C1,12,15,12,15,12C15,12,15,4,15,4C15,4,15,4,15,4Z" fill-rule="evenodd" fill="#7B899F" fill-opacity="1"/></g><g><path d="M6,9.49999C6,9.49999,6,10.5,6,10.5C6,10.5,9,10.5,9,10.5C9,10.5,9,5.5,9,5.5C9,5.5,6,5.5,6,5.5C6,5.5,6,8.49999,6,8.49999C6,8.49999,8,8.49999,8,8.49999C8,8.49999,8,9.49999,8,9.49999C8,9.49999,6,9.49999,6,9.49999C6,9.49999,6,9.49999,6,9.49999ZM8,7.49999C8,7.49999,7,7.49999,7,7.49999C7,7.49999,7,6.5,7,6.5C7,6.5,8,6.5,8,6.5C8,6.5,8,7.49999,8,7.49999C8,7.49999,8,7.49999,8,7.49999ZM6,5.5C6,5.5,6,10.5,6,10.5C6,10.5,7,10.5,7,10.5C7,10.5,7,5.5,7,5.5C7,5.5,6,5.5,6,5.5C6,5.5,6,5.5,6,5.5Z" fill="#7B899F" fill-opacity="1"/></g><g><path d="M13,6.5C13,6.5,13,5.5,13,5.5C13,5.5,10,5.5,10,5.5C10,5.5,10,10.5,10,10.5C10,10.5,13,10.5,13,10.5C13,10.5,13,7.49999,13,7.49999C13,7.49999,11,7.49999,11,7.49999C11,7.49999,11,6.5,11,6.5C11,6.5,13,6.5,13,6.5C13,6.5,13,6.5,13,6.5ZM11,8.49999C11,8.49999,12,8.49999,12,8.49999C12,8.49999,12,9.49999,12,9.49999C12,9.49999,11,9.49999,11,9.49999C11,9.49999,11,8.49999,11,8.49999C11,8.49999,11,8.49999,11,8.49999Z" fill="#7B899F" fill-opacity="1"/></g><g><path d="M2,7.5C2,7.5,5,7.5,5,7.5C5,7.5,5,8.5,5,8.5C5,8.5,2,8.5,2,8.5C2,8.5,2,7.5,2,7.5C2,7.5,2,7.5,2,7.5Z" fill="#7B899F" fill-opacity="1"/></g><g><path d="M4,6.5C4,6.5,4,9.5,4,9.5C4,9.5,3,9.5,3,9.5C3,9.5,3,6.5,3,6.5C3,6.5,4,6.5,4,6.5C4,6.5,4,6.5,4,6.5Z" fill="#7B899F" fill-opacity="1"/></g></g></svg>