<svg xmlns="http://www.w3.org/2000/svg" xmlns:xlink="http://www.w3.org/1999/xlink" fill="none" version="1.1" width="16" height="16" viewBox="0 0 16 16"><defs><clipPath id="master_svg0_0_22"><rect x="0" y="0" width="16" height="16" rx="0"/></clipPath></defs><g clip-path="url(#master_svg0_0_22)"><g><path d="M8,2C4.68629,2,2,4.68629,2,8C2,11.3137,4.68629,14,8,14C11.3137,14,14,11.3137,14,8C14,4.68629,11.3137,2,8,2C8,2,8,2,8,2ZM1,8C1,4.13401,4.13401,1,8,1C11.866,1,15,4.13401,15,8C15,11.866,11.866,15,8,15C4.13401,15,1,11.866,1,8C1,8,1,8,1,8Z" fill-rule="evenodd" fill="#7B899F" fill-opacity="1"/></g><g><path d="M7.5,2C7.5,2,8.5,2,8.5,2C8.5,2,8.5,7.79289,8.5,7.79289C8.5,7.79289,12.85355,12.1464,12.85355,12.1464C12.85355,12.1464,12.14645,12.8536,12.14645,12.8536C12.14645,12.8536,7.5,8.20711,7.5,8.20711C7.5,8.20711,7.5,2,7.5,2C7.5,2,7.5,2,7.5,2Z" fill-rule="evenodd" fill="#7B899F" fill-opacity="1"/></g></g></svg>