<svg xmlns="http://www.w3.org/2000/svg" xmlns:xlink="http://www.w3.org/1999/xlink" fill="none" version="1.1" width="16" height="16" viewBox="0 0 16 16"><defs><clipPath id="master_svg0_0_184"><rect x="0" y="0" width="16" height="16" rx="0"/></clipPath></defs><g clip-path="url(#master_svg0_0_184)"><g><path d="M2.5,2C2.22386,2,2,2.22386,2,2.5L2,7.5C2,7.77614,2.22386,8,2.5,8L7.5,8C7.77614,8,8,7.77614,8,7.5L8,2.5C8,2.22386,7.77614,2,7.5,2L2.5,2ZM10,2.5C10,2.22386,10.2239,2,10.5,2L13.5,2C13.7761,2,14,2.22386,14,2.5L14,5.5C14,5.77614,13.7761,6,13.5,6L10.5,6C10.2239,6,10,5.77614,10,5.5L10,2.5ZM3,3L7,3L7,7L3,7L3,3ZM13,3L11,3L11,5L13,5L13,3ZM6,4L4,4L4,6L6,6L6,4ZM10,7.5L14,7.5L14,8.5L10,8.5L10,7.5ZM8.5,9L8.5,10L7.5,10L7.5,9L8.5,9ZM2,10.5C2,10.2239,2.22386,10,2.5,10L5.5,10C5.77614,10,6,10.2239,6,10.5L6,13.5C6,13.7761,5.77614,14,5.5,14L2.5,14C2.22386,14,2,13.7761,2,13.5L2,10.5ZM10.5,10C10.2239,10,10,10.2239,10,10.5L10,13.5C10,13.7761,10.2239,14,10.5,14L13.5,14C13.7761,14,14,13.7761,14,13.5L14,10.5C14,10.2239,13.7761,10,13.5,10L10.5,10ZM5,13L5,11L3,11L3,13L5,13ZM8.5,14L8.5,11L7.5,11L7.5,14L8.5,14ZM13,13L11,13L11,11L13,11L13,13Z" fill-rule="evenodd" fill="#7B899F" fill-opacity="1"/></g></g></svg>