<svg xmlns="http://www.w3.org/2000/svg" xmlns:xlink="http://www.w3.org/1999/xlink" fill="none" version="1.1" width="16" height="16" viewBox="0 0 16 16"><defs><clipPath id="master_svg0_0_257"><rect x="0" y="0" width="16" height="16" rx="0"/></clipPath></defs><g clip-path="url(#master_svg0_0_257)"><g><path d="M8,2C4.68629,2,2,4.68629,2,8C2,11.3137,4.68629,14,8,14C11.3137,14,14,11.3137,14,8C14,4.68629,11.3137,2,8,2C8,2,8,2,8,2ZM1,8C1,4.13401,4.13401,1,8,1C11.866,1,15,4.13401,15,8C15,11.866,11.866,15,8,15C4.13401,15,1,11.866,1,8C1,8,1,8,1,8Z" fill-rule="evenodd" fill="#7B899F" fill-opacity="1"/></g><g><path d="M8,5C6.34315,5,5,6.34315,5,8C5,9.65685,6.34315,11,8,11C9.65685,11,11,9.65685,11,8C11,6.34315,9.65685,5,8,5C8,5,8,5,8,5ZM4,8C4,5.79086,5.79086,4,8,4C10.20914,4,12,5.79086,12,8C12,10.20914,10.20914,12,8,12C5.79086,12,4,10.20914,4,8C4,8,4,8,4,8Z" fill-rule="evenodd" fill="#7B899F" fill-opacity="1"/></g></g></svg>