<svg xmlns="http://www.w3.org/2000/svg" xmlns:xlink="http://www.w3.org/1999/xlink" fill="none" version="1.1" width="16" height="16" viewBox="0 0 16 16"><defs><clipPath id="master_svg0_0_327"><rect x="0" y="0" width="16" height="16" rx="0"/></clipPath></defs><g clip-path="url(#master_svg0_0_327)"><g><path d="M7.998248948745728,1.1666682861402369C8.188628948745727,1.1661791999302369,8.362768948745728,1.2738506269302368,8.447408948745728,1.444384626930237C8.447408948745728,1.444384626930237,10.395168948745727,5.368906626930237,10.395168948745727,5.368906626930237C10.395168948745727,5.368906626930237,14.738818948745728,6.002266626930237,14.738818948745728,6.002266626930237C14.926918948745728,6.0296866269302365,15.083118948745728,6.161376626930237,15.142018948745728,6.342086626930237C15.200918948745727,6.522796626930237,15.152318948745728,6.721266626930237,15.016518948745727,6.854256626930237C15.016518948745727,6.854256626930237,11.857318948745727,9.948196626930237,11.857318948745727,9.948196626930237C11.857318948745727,9.948196626930237,12.607718948745728,14.247366626930237,12.607718948745728,14.247366626930237C12.640518948745727,14.435566626930237,12.563218948745728,14.626166626930237,12.408518948745728,14.738266626930237C12.253718948745728,14.850366626930237,12.048618948745727,14.864466626930238,11.879918948745727,14.774566626930238C11.879918948745727,14.774566626930238,7.999558948745728,12.706366626930237,7.999558948745728,12.706366626930237C7.999558948745728,12.706366626930237,4.120018948745727,14.774566626930238,4.120018948745727,14.774566626930238C3.9512789487457276,14.864466626930238,3.7460089487457275,14.850366626930237,3.5912289487457274,14.738066626930237C3.4364389487457276,14.625766626930236,3.3592389487457277,14.435066626930237,3.3923589487457275,14.246766626930237C3.3923589487457275,14.246766626930237,4.148178948745727,9.948196626930237,4.148178948745727,9.948196626930237C4.148178948745727,9.948196626930237,0.9837989487457275,6.854556626930237,0.9837989487457275,6.854556626930237C0.8477853487457275,6.721586626930237,0.7990023487457275,6.522956626930237,0.8579422487457276,6.342106626930237C0.9168820487457275,6.161246626930237,1.0733349487457275,6.029506626930237,1.2615809487457275,6.002206626930237C1.2615809487457275,6.002206626930237,5.628958948745727,5.368916626930237,5.628958948745727,5.368916626930237C5.628958948745727,5.368916626930237,7.550518948745728,1.4466886269302368,7.550518948745728,1.4466886269302368C7.634278948745727,1.2757216269302367,7.807868948745727,1.1671573719302368,7.998248948745728,1.1666682861402369C7.998248948745728,1.1666682861402369,7.998248948745728,1.1666682861402369,7.998248948745728,1.1666682861402369ZM8.002438948745727,2.7972166269302368C8.002438948745727,2.7972166269302368,6.410878948745728,6.045846626930237,6.410878948745728,6.045846626930237C6.338228948745727,6.194136626930237,6.197038948745727,6.296996626930237,6.033618948745728,6.3206966269302365C6.033618948745728,6.3206966269302365,2.4062189487457273,6.846686626930237,2.4062189487457273,6.846686626930237C2.4062189487457273,6.846686626930237,5.035838948745727,9.417506626930237,5.035838948745727,9.417506626930237C5.153848948745727,9.532886626930237,5.207328948745728,9.699066626930238,5.178748948745728,9.861616626930237C5.178748948745728,9.861616626930237,4.554918948745728,13.409466626930238,4.554918948745728,13.409466626930238C4.554918948745728,13.409466626930238,7.764318948745728,11.698466626930237,7.764318948745728,11.698466626930237C7.911318948745728,11.620166626930237,8.087698948745729,11.620166626930237,8.234708948745727,11.698466626930237C8.234708948745727,11.698466626930237,11.446518948745728,13.410366626930237,11.446518948745728,13.410366626930237C11.446518948745728,13.410366626930237,10.826978948745728,9.861006626930237,10.826978948745728,9.861006626930237C10.798668948745728,9.698786626930238,10.852018948745728,9.533026626930237,10.969718948745728,9.417806626930236C10.969718948745728,9.417806626930236,13.595618948745727,6.846146626930237,13.595618948745727,6.846146626930237C13.595618948745727,6.846146626930237,9.991618948745728,6.320636626930237,9.991618948745728,6.320636626930237C9.829258948745727,6.296956626930236,9.688838948745728,6.195126626930237,9.615888948745727,6.048146626930237C9.615888948745727,6.048146626930237,8.002438948745727,2.7972166269302368,8.002438948745727,2.7972166269302368C8.002438948745727,2.7972166269302368,8.002438948745727,2.7972166269302368,8.002438948745727,2.7972166269302368Z" fill="#7B899F" fill-opacity="1"/></g></g></svg>