<svg xmlns="http://www.w3.org/2000/svg" xmlns:xlink="http://www.w3.org/1999/xlink" fill="none" version="1.1" width="16" height="16" viewBox="0 0 16 16"><defs><clipPath id="master_svg0_0_118"><rect x="0" y="0" width="16" height="16" rx="0"/></clipPath></defs><g clip-path="url(#master_svg0_0_118)"><g><path d="M8.25,6.833369970321655C9.49264,6.833369970321655,10.5,5.826009970321655,10.5,4.583369970321655C10.5,3.340729970321655,9.49264,2.3333699703216553,8.25,2.3333699703216553C7.00736,2.3333699703216553,6,3.340729970321655,6,4.583369970321655C6,5.826009970321655,7.00736,6.833369970321655,8.25,6.833369970321655C8.25,6.833369970321655,8.25,6.833369970321655,8.25,6.833369970321655ZM11.5,4.583369970321655C11.5,6.378299970321655,10.0449,7.833369970321655,8.25,7.833369970321655C6.45508,7.833369970321655,5,6.378299970321655,5,4.583369970321655C5,2.788449970321655,6.45508,1.3333699703216553,8.25,1.3333699703216553C10.0449,1.3333699703216553,11.5,2.788449970321655,11.5,4.583369970321655C11.5,4.583369970321655,11.5,4.583369970321655,11.5,4.583369970321655Z" fill-rule="evenodd" fill="#7B899F" fill-opacity="1"/></g><g><path d="M1.0928900463256837,13.97149493133545C0.8289600463256837,14.42859493133545,1.1588700463256836,15.00009493133545,1.6867400463256836,15.00009493133545C1.6867400463256836,15.00009493133545,7.031349046325683,15.00009493133545,7.031349046325683,15.00009493133545C7.559219046325683,15.00009493133545,7.889129046325683,14.42859493133545,7.625199046325684,13.97149493133545C7.625199046325684,13.97149493133545,4.952899046325683,9.34297993133545,4.952899046325683,9.34297993133545C4.688959046325683,8.885839931335449,4.0291390463256835,8.885839931335449,3.7651990463256837,9.34297993133545C3.7651990463256837,9.34297993133545,1.0928900463256837,13.97149493133545,1.0928900463256837,13.97149493133545C1.0928900463256837,13.97149493133545,1.0928900463256837,13.97149493133545,1.0928900463256837,13.97149493133545ZM4.3590490463256835,10.31439493133545C4.3590490463256835,10.31439493133545,6.486989046325683,14.00009493133545,6.486989046325683,14.00009493133545C6.486989046325683,14.00009493133545,2.2310990463256837,14.00009493133545,2.2310990463256837,14.00009493133545C2.2310990463256837,14.00009493133545,4.3590490463256835,10.31439493133545,4.3590490463256835,10.31439493133545C4.3590490463256835,10.31439493133545,4.3590490463256835,10.31439493133545,4.3590490463256835,10.31439493133545Z" fill="#7B899F" fill-opacity="1"/></g><g><path d="M10.265600231628419,10.000100162963868C10.265600231628419,10.000100162963868,10.265600231628419,14.000100162963868,10.265600231628419,14.000100162963868C10.265600231628419,14.000100162963868,14.265600231628419,14.000100162963868,14.265600231628419,14.000100162963868C14.265600231628419,14.000100162963868,14.265600231628419,10.000100162963868,14.265600231628419,10.000100162963868C14.265600231628419,10.000100162963868,10.265600231628419,10.000100162963868,10.265600231628419,10.000100162963868C10.265600231628419,10.000100162963868,10.265600231628419,10.000100162963868,10.265600231628419,10.000100162963868ZM10.099000231628418,9.000120162963867C10.099000231628418,9.000120162963867,14.432300231628417,9.000120162963867,14.432300231628417,9.000120162963867C14.892500231628418,9.000120162963867,15.265600231628419,9.373220162963868,15.265600231628419,9.833460162963867C15.265600231628419,9.833460162963867,15.265600231628419,14.166800162963867,15.265600231628419,14.166800162963867C15.265600231628419,14.627000162963867,14.892500231628418,15.000100162963868,14.432300231628417,15.000100162963868C14.432300231628417,15.000100162963868,10.099000231628418,15.000100162963868,10.099000231628418,15.000100162963868C9.638720231628419,15.000100162963868,9.265620231628418,14.627000162963867,9.265620231628418,14.166800162963867C9.265620231628418,14.166800162963867,9.265620231628418,9.833460162963867,9.265620231628418,9.833460162963867C9.265620231628418,9.373220162963868,9.638720231628419,9.000120162963867,10.099000231628418,9.000120162963867C10.099000231628418,9.000120162963867,10.099000231628418,9.000120162963867,10.099000231628418,9.000120162963867Z" fill-rule="evenodd" fill="#7B899F" fill-opacity="1"/></g></g></svg>