<svg xmlns="http://www.w3.org/2000/svg" xmlns:xlink="http://www.w3.org/1999/xlink" fill="none" version="1.1" width="16" height="16" viewBox="0 0 16 16"><defs><clipPath id="master_svg0_0_171"><rect x="0" y="0" width="16" height="16" rx="0"/></clipPath></defs><g clip-path="url(#master_svg0_0_171)"><g><path d="M2,3C2,2.447718,2.447718,2,3,2C3,2,10,2,10,2C10.55222,2,11,2.447692,11,3C11,3,11,13,11,13C11,13.5522,10.55224,14,10,14C10,14,3,14,3,14C2.447692,14,2,13.5522,2,13C2,13,2,3,2,3C2,3,2,3,2,3ZM10,3C10,3,3,3,3,3C3,3,3,13,3,13C3,13,10,13,10,13C10,13,10,3,10,3C10,3,10,3,10,3Z" fill-rule="evenodd" fill="#7B899F" fill-opacity="1"/></g><g><path d="M13,14C13,14,13,2,13,2C13,2,14,2,14,2C14,2,14,14,14,14C14,14,13,14,13,14C13,14,13,14,13,14Z" fill-rule="evenodd" fill="#7B899F" fill-opacity="1"/></g></g></svg>