<svg xmlns="http://www.w3.org/2000/svg" xmlns:xlink="http://www.w3.org/1999/xlink" fill="none" version="1.1" width="16" height="16" viewBox="0 0 16 16"><defs><clipPath id="master_svg0_0_235"><rect x="0" y="0" width="16" height="16" rx="0"/></clipPath></defs><g clip-path="url(#master_svg0_0_235)"><g><path d="M2,2C2,1.447718,2.447718,1,3,1C3,1,13,1,13,1C13.5522,1,14,1.447692,14,2C14,2,14,3.5,14,3.5C14,4.05231,13.5522,4.5,13,4.5C13,4.5,3,4.5,3,4.5C2.447718,4.5,2,4.05228,2,3.5C2,3.5,2,2,2,2C2,2,2,2,2,2ZM13,2C13,2,3,2,3,2C3,2,3,3.5,3,3.5C3,3.5,13,3.5,13,3.5C13,3.5,13,2,13,2C13,2,13,2,13,2Z" fill-rule="evenodd" fill="#7B899F" fill-opacity="1"/></g><g><path d="M2,6.5C2,5.947718,2.447718,5.5,3,5.5C3,5.5,13,5.5,13,5.5C13.5522,5.5,14,5.947692,14,6.5C14,6.5,14,13.5,14,13.5C14,14.05224,13.5522,14.5,13,14.5C13,14.5,3,14.5,3,14.5C2.447692,14.5,2,14.05222,2,13.5C2,13.5,2,6.5,2,6.5C2,6.5,2,6.5,2,6.5ZM13,6.5C13,6.5,3,6.5,3,6.5C3,6.5,3,13.5,3,13.5C3,13.5,13,13.5,13,13.5C13,13.5,13,6.5,13,6.5C13,6.5,13,6.5,13,6.5Z" fill-rule="evenodd" fill="#7B899F" fill-opacity="1"/></g><g><path d="M12,9C12,9,4,9,4,9C4,9,4,8,4,8C4,8,12,8,12,8C12,8,12,9,12,9C12,9,12,9,12,9Z" fill-rule="evenodd" fill="#7B899F" fill-opacity="1"/></g><g><path d="M12,11.5C12,11.5,4,11.5,4,11.5C4,11.5,4,10.5,4,10.5C4,10.5,12,10.5,12,10.5C12,10.5,12,11.5,12,11.5C12,11.5,12,11.5,12,11.5Z" fill-rule="evenodd" fill="#7B899F" fill-opacity="1"/></g></g></svg>