<svg xmlns="http://www.w3.org/2000/svg" xmlns:xlink="http://www.w3.org/1999/xlink" fill="none" version="1.1" width="16" height="16" viewBox="0 0 16 16"><defs><clipPath id="master_svg0_0_330"><rect x="0" y="0" width="16" height="16" rx="0"/></clipPath></defs><g clip-path="url(#master_svg0_0_330)"><g><path d="M3.6666667461395264,4.833333492279053C3.9428087461395265,4.833333492279053,4.166666746139526,5.057191492279053,4.166666746139526,5.333333492279053C4.166666746139526,5.333333492279053,4.166666746139526,14.000003492279053,4.166666746139526,14.000003492279053C4.166666746139526,14.276143492279052,3.9428087461395265,14.500003492279053,3.6666667461395264,14.500003492279053C3.3905247461395263,14.500003492279053,3.1666667461395264,14.276143492279052,3.1666667461395264,14.000003492279053C3.1666667461395264,14.000003492279053,3.1666667461395264,5.333333492279053,3.1666667461395264,5.333333492279053C3.1666667461395264,5.057191492279053,3.3905247461395263,4.833333492279053,3.6666667461395264,4.833333492279053C3.6666667461395264,4.833333492279053,3.6666667461395264,4.833333492279053,3.6666667461395264,4.833333492279053Z" fill="#7B899F" fill-opacity="1"/></g><g><path d="M8,9.166666984558105C8.276142,9.166666984558105,8.5,9.390524984558105,8.5,9.666666984558105C8.5,9.666666984558105,8.5,13.999996984558106,8.5,13.999996984558106C8.5,14.276146984558105,8.276142,14.499996984558106,8,14.499996984558106C7.723858,14.499996984558106,7.5,14.276146984558105,7.5,13.999996984558106C7.5,13.999996984558106,7.5,9.666666984558105,7.5,9.666666984558105C7.5,9.390524984558105,7.723858,9.166666984558105,8,9.166666984558105C8,9.166666984558105,8,9.166666984558105,8,9.166666984558105Z" fill="#7B899F" fill-opacity="1"/></g><g><path d="M8,1.5C7.723858,1.5,7.5,1.723858,7.5,2C7.5,2,7.5,6.33333,7.5,6.33333C7.5,6.60948,7.723858,6.83333,8,6.83333C8.276142,6.83333,8.5,6.60948,8.5,6.33333C8.5,6.33333,8.5,2,8.5,2C8.5,1.723858,8.276142,1.5,8,1.5C8,1.5,8,1.5,8,1.5Z" fill="#7B899F" fill-opacity="1"/></g><g><path d="M12.333333015441895,1.5C12.609475015441895,1.5,12.833333015441895,1.723858,12.833333015441895,2C12.833333015441895,2,12.833333015441895,10.66667,12.833333015441895,10.66667C12.833333015441895,10.94281,12.609475015441895,11.16667,12.333333015441895,11.16667C12.057191015441894,11.16667,11.833333015441895,10.94281,11.833333015441895,10.66667C11.833333015441895,10.66667,11.833333015441895,2,11.833333015441895,2C11.833333015441895,1.723858,12.057191015441894,1.5,12.333333015441895,1.5C12.333333015441895,1.5,12.333333015441895,1.5,12.333333015441895,1.5Z" fill="#7B899F" fill-opacity="1"/></g><g><path d="M1.5,3.66667C1.5,2.4700509999999998,2.4700509999999998,1.5,3.66667,1.5C4.86327,1.5,5.83333,2.47005,5.83333,3.66667C5.83333,4.86328,4.86328,5.83333,3.66667,5.83333C2.47005,5.83333,1.5,4.86327,1.5,3.66667C1.5,3.66667,1.5,3.66667,1.5,3.66667ZM3.66667,2.5C3.02234,2.5,2.5,3.02234,2.5,3.66667C2.5,4.31099,3.02234,4.83333,3.66667,4.83333C4.31099,4.83333,4.83333,4.31099,4.83333,3.66667C4.83333,3.02234,4.31099,2.5,3.66667,2.5C3.66667,2.5,3.66667,2.5,3.66667,2.5Z" fill="#7B899F" fill-opacity="1"/></g><g><path d="M5.833333492279053,8.000003492279053C5.833333492279053,6.8033844922790525,6.8033844922790525,5.833333492279053,8.000003492279053,5.833333492279053C9.196603492279053,5.833333492279053,10.166663492279053,6.803383492279052,10.166663492279053,8.000003492279053C10.166663492279053,9.196613492279052,9.196613492279052,10.166663492279053,8.000003492279053,10.166663492279053C6.803383492279052,10.166663492279053,5.833333492279053,9.196603492279053,5.833333492279053,8.000003492279053C5.833333492279053,8.000003492279053,5.833333492279053,8.000003492279053,5.833333492279053,8.000003492279053ZM8.000003492279053,6.833333492279053C7.3556734922790525,6.833333492279053,6.833333492279053,7.3556734922790525,6.833333492279053,8.000003492279053C6.833333492279053,8.644323492279053,7.3556734922790525,9.166663492279053,8.000003492279053,9.166663492279053C8.644323492279053,9.166663492279053,9.166663492279053,8.644323492279053,9.166663492279053,8.000003492279053C9.166663492279053,7.3556734922790525,8.644323492279053,6.833333492279053,8.000003492279053,6.833333492279053C8.000003492279053,6.833333492279053,8.000003492279053,6.833333492279053,8.000003492279053,6.833333492279053Z" fill="#7B899F" fill-opacity="1"/></g><g><path d="M10.166666984558105,12.333336984558105C10.166666984558105,11.136717984558105,11.136717984558105,10.166666984558105,12.333336984558105,10.166666984558105C13.529936984558105,10.166666984558105,14.499996984558106,11.136716984558106,14.499996984558106,12.333336984558105C14.499996984558106,13.529946984558105,13.529946984558105,14.499996984558106,12.333336984558105,14.499996984558106C11.136716984558106,14.499996984558106,10.166666984558105,13.529936984558105,10.166666984558105,12.333336984558105C10.166666984558105,12.333336984558105,10.166666984558105,12.333336984558105,10.166666984558105,12.333336984558105ZM12.333336984558105,11.166666984558105C11.689006984558105,11.166666984558105,11.166666984558105,11.689006984558105,11.166666984558105,12.333336984558105C11.166666984558105,12.977656984558106,11.689006984558105,13.499996984558106,12.333336984558105,13.499996984558106C12.977656984558106,13.499996984558106,13.499996984558106,12.977656984558106,13.499996984558106,12.333336984558105C13.499996984558106,11.689006984558105,12.977656984558106,11.166666984558105,12.333336984558105,11.166666984558105C12.333336984558105,11.166666984558105,12.333336984558105,11.166666984558105,12.333336984558105,11.166666984558105Z" fill="#7B899F" fill-opacity="1"/></g></g></svg>