<svg xmlns="http://www.w3.org/2000/svg" xmlns:xlink="http://www.w3.org/1999/xlink" fill="none" version="1.1" width="16" height="16" viewBox="0 0 16 16"><defs><clipPath id="master_svg0_0_30"><rect x="0" y="0" width="16" height="16" rx="0"/></clipPath></defs><g clip-path="url(#master_svg0_0_30)"><g><path d="M7.5,11.5C7.5,11.5,7.5,6.5,7.5,6.5C7.5,6.5,4.5,6.5,4.5,6.5C4.5,6.5,4.5,7.5,4.5,7.5C4.5,7.5,6.5,7.5,6.5,7.5C6.5,7.5,6.5,8.5,6.5,8.5C6.5,8.5,4.5,8.5,4.5,8.5C4.5,8.5,4.5,9.5,4.5,9.5C4.5,9.5,6.5,9.5,6.5,9.5C6.5,9.5,6.5,10.5,6.5,10.5C6.5,10.5,4.5,10.5,4.5,10.5C4.5,10.5,4.5,11.5,4.5,11.5C4.5,11.5,7.5,11.5,7.5,11.5C7.5,11.5,7.5,11.5,7.5,11.5Z" fill="#7B899F" fill-opacity="1"/></g><g><path d="M11.5,6.5C11.5,6.5,8.5,6.5,8.5,6.5C8.5,6.5,8.5,7.5,8.5,7.5C8.5,7.5,10.5,7.5,10.5,7.5C10.5,7.5,10.5,8.5,10.5,8.5C10.5,8.5,8.5,8.5,8.5,8.5C8.5,8.5,8.5,11.5,8.5,11.5C8.5,11.5,11.5,11.5,11.5,11.5C11.5,11.5,11.5,10.5,11.5,10.5C11.5,10.5,9.5,10.5,9.5,10.5C9.5,10.5,9.5,9.5,9.5,9.5C9.5,9.5,11.5,9.5,11.5,9.5C11.5,9.5,11.5,6.5,11.5,6.5C11.5,6.5,11.5,6.5,11.5,6.5Z" fill="#7B899F" fill-opacity="1"/></g><g><path d="M3,5.5C3,5.5,6,5.5,6,5.5C6,5.5,6,4.5,6,4.5C6,4.5,3,4.5,3,4.5C3,4.5,3,5.5,3,5.5C3,5.5,3,5.5,3,5.5Z" fill="#7B899F" fill-opacity="1"/></g><g><path d="M2,2.5C1.44772,2.5,1,2.94771,1,3.5C1,3.5,1,12.5,1,12.5C1,13.0523,1.44772,13.5,2,13.5C2,13.5,14,13.5,14,13.5C14.5523,13.5,15,13.0523,15,12.5C15,12.5,15,3.5,15,3.5C15,2.94772,14.5523,2.5,14,2.5C14,2.5,2,2.5,2,2.5C2,2.5,2,2.5,2,2.5ZM14,3.5C14,3.5,14,12.5,14,12.5C14,12.5,2,12.5,2,12.5C2,12.5,2,3.5,2,3.5C2,3.5,14,3.5,14,3.5C14,3.5,14,3.5,14,3.5Z" fill="#7B899F" fill-opacity="1"/></g></g></svg>