<svg xmlns="http://www.w3.org/2000/svg" xmlns:xlink="http://www.w3.org/1999/xlink" fill="none" version="1.1" width="16" height="16" viewBox="0 0 16 16"><defs><clipPath id="master_svg0_0_44"><rect x="0" y="0" width="16" height="16" rx="0"/></clipPath></defs><g clip-path="url(#master_svg0_0_44)"><g><path d="M14.5,4C14.5,4,14.5,13,14.5,13C14.5,13,1.5,13,1.5,13C1.5,13,1.5,4,1.5,4C1.5,4,14.5,4,14.5,4C14.5,4,14.5,4,14.5,4ZM1.5,3C0.947715,3,0.5,3.44772,0.5,4C0.5,4,0.5,13,0.5,13C0.5,13.5523,0.947715,14,1.5,14C1.5,14,14.5,14,14.5,14C15.0523,14,15.5,13.5523,15.5,13C15.5,13,15.5,4,15.5,4C15.5,3.44772,15.0523,3,14.5,3C14.5,3,1.5,3,1.5,3C1.5,3,1.5,3,1.5,3ZM6.5,6C6.5,6,6.5,9,6.5,9C6.5,9,3.5,9,3.5,9C3.5,9,3.5,6,3.5,6C3.5,6,6.5,6,6.5,6C6.5,6,6.5,6,6.5,6ZM3.5,5C2.94772,5,2.5,5.44772,2.5,6C2.5,6,2.5,9,2.5,9C2.5,9.55228,2.94772,10,3.5,10C3.5,10,6.5,10,6.5,10C7.05228,10,7.5,9.55228,7.5,9C7.5,9,7.5,6,7.5,6C7.5,5.44772,7.05228,5,6.5,5C6.5,5,3.5,5,3.5,5C3.5,5,3.5,5,3.5,5ZM9.5,6C9.5,6,9.5,9,9.5,9C9.5,9,12.5,9,12.5,9C12.5,9,12.5,6,12.5,6C12.5,6,9.5,6,9.5,6C9.5,6,9.5,6,9.5,6ZM8.5,6C8.5,5.44772,8.94772,5,9.5,5C9.5,5,12.5,5,12.5,5C13.0523,5,13.5,5.44772,13.5,6C13.5,6,13.5,9,13.5,9C13.5,9.55228,13.0523,10,12.5,10C12.5,10,9.5,10,9.5,10C8.94771,10,8.5,9.55228,8.5,9C8.5,9,8.5,6,8.5,6C8.5,6,8.5,6,8.5,6ZM7.5,12C7.5,12,2.5,12,2.5,12C2.5,12,2.5,11,2.5,11C2.5,11,7.5,11,7.5,11C7.5,11,7.5,12,7.5,12C7.5,12,7.5,12,7.5,12ZM8.5,12C8.5,12,13.5,12,13.5,12C13.5,12,13.5,11,13.5,11C13.5,11,8.5,11,8.5,11C8.5,11,8.5,12,8.5,12C8.5,12,8.5,12,8.5,12Z" fill="#7B899F" fill-opacity="1"/></g></g></svg>