<svg xmlns="http://www.w3.org/2000/svg" xmlns:xlink="http://www.w3.org/1999/xlink" fill="none" version="1.1" width="16" height="16" viewBox="0 0 16 16"><defs><clipPath id="master_svg0_0_200"><rect x="0" y="0" width="16" height="16" rx="0"/></clipPath></defs><g clip-path="url(#master_svg0_0_200)"><g><path d="M5,4C2.79086,4,1,5.79086,1,8C1,10.20914,2.79086,12,5,12C5,12,11,12,11,12C13.2091,12,15,10.20914,15,8C15,5.79086,13.2091,4,11,4C11,4,5,4,5,4C5,4,5,4,5,4ZM0,8C0,5.23858,2.23858,3,5,3C5,3,11,3,11,3C13.7614,3,16,5.23858,16,8C16,10.761420000000001,13.7614,13,11,13C11,13,5,13,5,13C2.23858,13,0,10.761420000000001,0,8C0,8,0,8,0,8Z" fill-rule="evenodd" fill="#7B899F" fill-opacity="1"/></g><g><path d="M5,6C3.89543,6,3,6.89543,3,8C3,9.104569999999999,3.89543,10,5,10C6.10457,10,7,9.104569999999999,7,8C7,6.89543,6.10457,6,5,6C5,6,5,6,5,6ZM2,8C2,6.34315,3.34315,5,5,5C6.65685,5,8,6.34315,8,8C8,9.65685,6.65685,11,5,11C3.34315,11,2,9.65685,2,8C2,8,2,8,2,8Z" fill-rule="evenodd" fill="#7B899F" fill-opacity="1"/></g></g></svg>