<svg xmlns="http://www.w3.org/2000/svg" xmlns:xlink="http://www.w3.org/1999/xlink" fill="none" version="1.1" width="16" height="16" viewBox="0 0 16 16"><defs><clipPath id="master_svg0_0_137"><rect x="0" y="0" width="16" height="16" rx="0"/></clipPath></defs><g clip-path="url(#master_svg0_0_137)"><g><path d="M12,11C12,11,4,11,4,11C4,11,4,10,4,10C4,10,12,10,12,10C12,10,12,11,12,11C12,11,12,11,12,11Z" fill-rule="evenodd" fill="#7B899F" fill-opacity="1"/></g><g><path d="M2,13C2,13,2,2,2,2C2,2,3,2,3,2C3,2,3,13,3,13C3,13,13,13,13,13C13,13,13,2,13,2C13,2,14,2,14,2C14,2,14,13,14,13C14,13.5522,13.5522,14,13,14C13,14,3,14,3,14C2.447692,14,2,13.5522,2,13C2,13,2,13,2,13Z" fill-rule="evenodd" fill="#7B899F" fill-opacity="1"/></g></g></svg>