<svg xmlns="http://www.w3.org/2000/svg" xmlns:xlink="http://www.w3.org/1999/xlink" fill="none" version="1.1" width="16" height="17" viewBox="0 0 16 17"><defs><clipPath id="master_svg0_0_248"><rect x="0" y="0" width="16" height="17" rx="0"/></clipPath></defs><g clip-path="url(#master_svg0_0_248)"><g><path d="M1,4C1,3.447718,1.447718,3,2,3C2,3,14,3,14,3C14.5522,3,15,3.447692,15,4C15,4,15,13,15,13C15,13.5522,14.5522,14,14,14C14,14,2,14,2,14C1.447692,14,1,13.5522,1,13C1,13,1,4,1,4C1,4,1,4,1,4ZM14,4C14,4,2,4,2,4C2,4,2,13,2,13C2,13,14,13,14,13C14,13,14,4,14,4C14,4,14,4,14,4Z" fill-rule="evenodd" fill="#7B899F" fill-opacity="1"/></g><g><path d="M12.00000006942749,6.0000200272C12.00000006942749,6.0000200272,5.99970006942749,6,5.99970006942749,6C5.99970006942749,6,5.99970006942749,7,5.99970006942749,7C5.99970006942749,7,12.00000006942749,7.00002,12.00000006942749,7.00002C12.00000006942749,7.00002,12.00000006942749,6.0000200272,12.00000006942749,6.0000200272C12.00000006942749,6.0000200272,12.00000006942749,6.0000200272,12.00000006942749,6.0000200272Z" fill="#7B899F" fill-opacity="1"/></g><g><path d="M4.99965,6C4.99965,6,4,6,4,6C4,6,4,7,4,7C4,7,4.99965,7,4.99965,7C4.99965,7,4.99965,6,4.99965,6C4.99965,6,4.99965,6,4.99965,6Z" fill="#7B899F" fill-opacity="1"/></g><g><path d="M12.00000006942749,8.0000200272C12.00000006942749,8.0000200272,5.99970006942749,8,5.99970006942749,8C5.99970006942749,8,5.99970006942749,9,5.99970006942749,9C5.99970006942749,9,12.00000006942749,9.00002,12.00000006942749,9.00002C12.00000006942749,9.00002,12.00000006942749,8.0000200272,12.00000006942749,8.0000200272C12.00000006942749,8.0000200272,12.00000006942749,8.0000200272,12.00000006942749,8.0000200272Z" fill="#7B899F" fill-opacity="1"/></g><g><path d="M4.99965,8C4.99965,8,4,8,4,8C4,8,4,9,4,9C4,9,4.99965,9,4.99965,9C4.99965,9,4.99965,8,4.99965,8C4.99965,8,4.99965,8,4.99965,8Z" fill="#7B899F" fill-opacity="1"/></g><g><path d="M12.00000006942749,10C12.00000006942749,10,5.99970006942749,10,5.99970006942749,10C5.99970006942749,10,5.99970006942749,11,5.99970006942749,11C5.99970006942749,11,12.00000006942749,11,12.00000006942749,11C12.00000006942749,11,12.00000006942749,10,12.00000006942749,10C12.00000006942749,10,12.00000006942749,10,12.00000006942749,10Z" fill="#7B899F" fill-opacity="1"/></g><g><path d="M4.99965,10C4.99965,10,4,10,4,10C4,10,4,11,4,11C4,11,4.99965,11,4.99965,11C4.99965,11,4.99965,10,4.99965,10C4.99965,10,4.99965,10,4.99965,10Z" fill="#7B899F" fill-opacity="1"/></g></g></svg>