<svg xmlns="http://www.w3.org/2000/svg" xmlns:xlink="http://www.w3.org/1999/xlink" fill="none" version="1.1" width="16" height="16" viewBox="0 0 16 16"><defs><clipPath id="master_svg0_0_84"><rect x="0" y="0" width="16" height="16" rx="0"/></clipPath></defs><g clip-path="url(#master_svg0_0_84)"><g><path d="M2,5C2,4.447718,2.447718,4,3,4C3,4,13,4,13,4C13.5522,4,14,4.447692,14,5C14,5,14,13,14,13C14,13.55224,13.5522,14,13,14C13,14,3,14,3,14C2.447692,14,2,13.55222,2,13C2,13,2,5,2,5C2,5,2,5,2,5ZM13,5C13,5,3,5,3,5C3,5,3,13,3,13C3,13,13,13,13,13C13,13,13,5,13,5C13,5,13,5,13,5Z" fill-rule="evenodd" fill="#7B899F" fill-opacity="1"/></g><g><path d="M6,3C6,3,2,3,2,3C2,3,2,2,2,2C2,2,6,2,6,2C6,2,6,3,6,3C6,3,6,3,6,3Z" fill-rule="evenodd" fill="#7B899F" fill-opacity="1"/></g><g><path d="M7.5,13C7.5,13,7.5,4,7.5,4C7.5,4,8.5,4,8.5,4C8.5,4,8.5,13,8.5,13C8.5,13,7.5,13,7.5,13C7.5,13,7.5,13,7.5,13Z" fill-rule="evenodd" fill="#7B899F" fill-opacity="1"/></g></g></svg>