<svg xmlns="http://www.w3.org/2000/svg" xmlns:xlink="http://www.w3.org/1999/xlink" fill="none" version="1.1" width="16" height="16" viewBox="0 0 16 16"><defs><clipPath id="master_svg0_0_231"><rect x="0" y="0" width="16" height="16" rx="0"/></clipPath></defs><g clip-path="url(#master_svg0_0_231)"><g><path d="M6.5,13C6.5,13,9.5,13,9.5,13C9.5,13,9.5,12,9.5,12C9.5,12,6.5,12,6.5,12C6.5,12,6.5,13,6.5,13C6.5,13,6.5,13,6.5,13Z" fill="#7B899F" fill-opacity="1"/></g><g><path d="M3.5,2.5C3.5,1.94772,3.94772,1.5,4.5,1.5C4.5,1.5,11.5,1.5,11.5,1.5C12.0523,1.5,12.5,1.94772,12.5,2.5C12.5,2.5,12.5,14,12.5,14C12.5,14.5523,12.0523,15,11.5,15C11.5,15,4.5,15,4.5,15C3.94772,15,3.5,14.5523,3.5,14C3.5,14,3.5,2.5,3.5,2.5C3.5,2.5,3.5,2.5,3.5,2.5ZM4.5,2.5C4.5,2.5,4.5,14,4.5,14C4.5,14,11.5,14,11.5,14C11.5,14,11.5,2.5,11.5,2.5C11.5,2.5,4.5,2.5,4.5,2.5C4.5,2.5,4.5,2.5,4.5,2.5Z" fill="#7B899F" fill-opacity="1"/></g></g></svg>