<svg xmlns="http://www.w3.org/2000/svg" xmlns:xlink="http://www.w3.org/1999/xlink" fill="none" version="1.1" width="16" height="16" viewBox="0 0 16 16"><defs><clipPath id="master_svg0_0_261"><rect x="0" y="0" width="16" height="16" rx="0"/></clipPath></defs><g clip-path="url(#master_svg0_0_261)"><g><path d="M2,3C2,2.447718,2.447718,2,3,2C3,2,13,2,13,2C13.5522,2,14,2.447692,14,3C14,3,14,5,14,5C14,5,13,5,13,5C13,5,13,3,13,3C13,3,3,3,3,3C3,3,3,5,3,5C3,5,2,5,2,5C2,5,2,3,2,3C2,3,2,3,2,3Z" fill-rule="evenodd" fill="#7B899F" fill-opacity="1"/></g><g><path d="M5,13C5,13,11,13,11,13C11,13,11,14,11,14C11,14,5,14,5,14C5,14,5,13,5,13C5,13,5,13,5,13Z" fill-rule="evenodd" fill="#7B899F" fill-opacity="1"/></g><g><path d="M8.5,2.5C8.5,2.5,8.5,14,8.5,14C8.5,14,7.5,14,7.5,14C7.5,14,7.5,2.5,7.5,2.5C7.5,2.5,8.5,2.5,8.5,2.5C8.5,2.5,8.5,2.5,8.5,2.5Z" fill-rule="evenodd" fill="#7B899F" fill-opacity="1"/></g></g></svg>