<svg xmlns="http://www.w3.org/2000/svg" xmlns:xlink="http://www.w3.org/1999/xlink" fill="none" version="1.1" width="16" height="16" viewBox="0 0 16 16"><defs><clipPath id="master_svg0_0_141"><rect x="0" y="0" width="16" height="16" rx="0"/></clipPath></defs><g clip-path="url(#master_svg0_0_141)"><g><path d="M7.5,4C7.5,4,7.5,8.388919999999999,7.5,8.388919999999999C7.5,8.388919999999999,10.0002,11,10.0002,11C10.0002,11,10.7074,10.2929,10.7074,10.2929C10.7074,10.2929,8.5,7.97471,8.5,7.97471C8.5,7.97471,8.5,4,8.5,4C8.5,4,7.5,4,7.5,4C7.5,4,7.5,4,7.5,4Z" fill="#7B899F" fill-opacity="1"/></g><g><path d="M15,8C15,11.866,11.866,15,8,15C4.13401,15,1,11.866,1,8C1,4.13401,4.13401,1,8,1C11.866,1,15,4.13401,15,8C15,8,15,8,15,8ZM14,8C14,4.68629,11.3137,2,8,2C4.68629,2,2,4.68629,2,8C2,11.3137,4.68629,14,8,14C11.3137,14,14,11.3137,14,8C14,8,14,8,14,8Z" fill="#7B899F" fill-opacity="1"/></g></g></svg>