<svg xmlns="http://www.w3.org/2000/svg" xmlns:xlink="http://www.w3.org/1999/xlink" fill="none" version="1.1" width="14" height="13" viewBox="0 0 14 13"><defs><clipPath id="master_svg0_0_76"><rect x="0" y="0" width="14" height="13" rx="0"/></clipPath></defs><g clip-path="url(#master_svg0_0_76)"><g><path d="M0,1.5C0,0.947719,0.447714,0.5,1,0.5C1,0.5,12.5,0.5,12.5,0.5C13.0522,0.5,13.5,0.947692,13.5,1.5C13.5,1.5,13.5,9,13.5,9C13.5,9.55231,13.0522,10,12.5,10C12.5,10,3.5,10,3.5,10C3.18524,10,2.88885,10.14819,2.7,10.4C2.7,10.4,0,14,0,14C0,14,0,1.5,0,1.5C0,1.5,0,1.5,0,1.5ZM12.5,1.5C12.5,1.5,1,1.5,1,1.5C1,1.5,1,11,1,11C1,11,1.9,9.8,1.9,9.8C2.27771,9.29639,2.87048,9,3.5,9C3.5,9,12.5,9,12.5,9C12.5,9,12.5,1.5,12.5,1.5C12.5,1.5,12.5,1.5,12.5,1.5Z" fill-rule="evenodd" fill="#7B899F" fill-opacity="1"/></g></g></svg>