<svg xmlns="http://www.w3.org/2000/svg" xmlns:xlink="http://www.w3.org/1999/xlink" fill="none" version="1.1" width="16" height="16" viewBox="0 0 16 16"><defs><clipPath id="master_svg0_0_339"><rect x="0" y="0" width="16" height="16" rx="0"/></clipPath></defs><g clip-path="url(#master_svg0_0_339)"><g><path d="M1.5,3C1.5,2.171574,2.171574,1.5,3,1.5C3,1.5,13,1.5,13,1.5C13.8284,1.5,14.5,2.17158,14.5,3C14.5,3,14.5,13,14.5,13C14.5,13.8284,13.8284,14.5,13,14.5C13,14.5,3,14.5,3,14.5C2.17158,14.5,1.5,13.8284,1.5,13C1.5,13,1.5,3,1.5,3C1.5,3,1.5,3,1.5,3ZM3,2.5C2.72386,2.5,2.5,2.72386,2.5,3C2.5,3,2.5,13,2.5,13C2.5,13.2762,2.72385,13.5,3,13.5C3,13.5,13,13.5,13,13.5C13.2762,13.5,13.5,13.2762,13.5,13C13.5,13,13.5,3,13.5,3C13.5,2.72385,13.2762,2.5,13,2.5C13,2.5,3,2.5,3,2.5C3,2.5,3,2.5,3,2.5Z" fill="#7B899F" fill-opacity="1"/></g><g><path d="M4.5,7C4.5,6.723858,4.723858,6.5,5,6.5C5,6.5,11,6.5,11,6.5C11.27614,6.5,11.5,6.723858,11.5,7C11.5,7.276142,11.27614,7.5,11,7.5C11,7.5,5,7.5,5,7.5C4.723858,7.5,4.5,7.276142,4.5,7C4.5,7,4.5,7,4.5,7Z" fill="#7B899F" fill-opacity="1"/></g><g><path d="M4.5,9C4.5,8.723858,4.723858,8.5,5,8.5C5,8.5,11,8.5,11,8.5C11.27614,8.5,11.5,8.723858,11.5,9C11.5,9.276142,11.27614,9.5,11,9.5C11,9.5,5,9.5,5,9.5C4.723858,9.5,4.5,9.276142,4.5,9C4.5,9,4.5,9,4.5,9Z" fill="#7B899F" fill-opacity="1"/></g><g><path d="M8.313113984558106,4.3131135077209475C8.508375984558105,4.117850907720947,8.824957984558106,4.117850907720947,9.020219984558105,4.3131135077209475C9.020219984558105,4.3131135077209475,11.353556984558105,6.646446507720947,11.353556984558105,6.646446507720947C11.548816984558105,6.841706507720947,11.548816984558105,7.158286507720947,11.353556984558105,7.353556507720947C11.158286984558107,7.5488165077209475,10.841706984558105,7.5488165077209475,10.646446984558105,7.353556507720947C10.646446984558105,7.353556507720947,8.313113984558106,5.020219507720947,8.313113984558106,5.020219507720947C8.117851384558106,4.8249575077209474,8.117851384558106,4.508375507720947,8.313113984558106,4.3131135077209475C8.313113984558106,4.3131135077209475,8.313113984558106,4.3131135077209475,8.313113984558106,4.3131135077209475Z" fill="#7B899F" fill-opacity="1"/></g><g><path d="M4.646447,8.646447C4.841709,8.4511844,5.158291,8.4511844,5.353553,8.646447C5.353553,8.646447,7.68689,10.97978,7.68689,10.97978C7.88215,11.17504,7.88215,11.491620000000001,7.68689,11.68689C7.49162,11.88215,7.17504,11.88215,6.97978,11.68689C6.97978,11.68689,4.646447,9.353553,4.646447,9.353553C4.4511844,9.158291,4.4511844,8.841709,4.646447,8.646447C4.646447,8.646447,4.646447,8.646447,4.646447,8.646447Z" fill="#7B899F" fill-opacity="1"/></g></g></svg>