<svg xmlns="http://www.w3.org/2000/svg" xmlns:xlink="http://www.w3.org/1999/xlink" fill="none" version="1.1" width="16" height="16" viewBox="0 0 16 16"><defs><clipPath id="master_svg0_0_93"><rect x="0" y="0" width="16" height="16" rx="0"/></clipPath></defs><g clip-path="url(#master_svg0_0_93)"><g><path d="M2,2C2,1.447718,2.447718,1,3,1C3,1,5,1,5,1C5.55228,1,6,1.447718,6,2C6,2,6,4,6,4C6,4.55228,5.55228,5,5,5C5,5,3,5,3,5C2.447718,5,2,4.55228,2,4C2,4,2,2,2,2C2,2,2,2,2,2ZM5,2C5,2,3,2,3,2C3,2,3,4,3,4C3,4,5,4,5,4C5,4,5,2,5,2C5,2,5,2,5,2Z" fill-rule="evenodd" fill="#7B899F" fill-opacity="1"/></g><g><path d="M10,6.5C10,5.947692,10.447784,5.5,11,5.5C11,5.5,13,5.5,13,5.5C13.55222,5.5,14,5.947692,14,6.5C14,6.5,14,8.5,14,8.5C14,9.05231,13.55222,9.5,13,9.5C13,9.5,11,9.5,11,9.5C10.447784,9.5,10,9.05231,10,8.5C10,8.5,10,6.5,10,6.5C10,6.5,10,6.5,10,6.5ZM13,6.5C13,6.5,11,6.5,11,6.5C11,6.5,11,8.5,11,8.5C11,8.5,13,8.5,13,8.5C13,8.5,13,6.5,13,6.5C13,6.5,13,6.5,13,6.5Z" fill-rule="evenodd" fill="#7B899F" fill-opacity="1"/></g><g><path d="M10,12C10,11.447758,10.447758,11,11,11C11,11,13,11,13,11C13.55224,11,14,11.447758,14,12C14,12,14,14,14,14C14,14.55224,13.55224,15,13,15C13,15,11,15,11,15C10.447758,15,10,14.55224,10,14C10,14,10,12,10,12C10,12,10,12,10,12ZM13,12C13,12,11,12,11,12C11,12,11,14,11,14C11,14,13,14,13,14C13,14,13,12,13,12C13,12,13,12,13,12Z" fill-rule="evenodd" fill="#7B899F" fill-opacity="1"/></g><g><path d="M3.5,5C3.5,5,4.5,5,4.5,5C4.5,5,4.5,12.5,4.5,12.5C4.5,12.5,11,12.5,11,12.5C11,12.5,11,13.5,11,13.5C11,13.5,3.5,13.5,3.5,13.5C3.5,13.5,3.5,5,3.5,5C3.5,5,3.5,5,3.5,5Z" fill-rule="evenodd" fill="#7B899F" fill-opacity="1"/></g><g><path d="M11,8C11,8,4,8,4,8C4,8,4,7,4,7C4,7,11,7,11,7C11,7,11,8,11,8C11,8,11,8,11,8Z" fill-rule="evenodd" fill="#7B899F" fill-opacity="1"/></g></g></svg>