<svg xmlns="http://www.w3.org/2000/svg" xmlns:xlink="http://www.w3.org/1999/xlink" fill="none" version="1.1" width="16" height="16" viewBox="0 0 16 16"><defs><clipPath id="master_svg0_0_300"><rect x="0" y="0" width="16" height="16" rx="0"/></clipPath></defs><g clip-path="url(#master_svg0_0_300)"><g><path d="M2,2C2,1.447718,2.447718,1,3,1C3,1,13,1,13,1C13.5522,1,14,1.447692,14,2C14,2,14,3.5,14,3.5C14,4.05231,13.5522,4.5,13,4.5C13,4.5,3,4.5,3,4.5C2.447718,4.5,2,4.05228,2,3.5C2,3.5,2,2,2,2C2,2,2,2,2,2ZM13,2C13,2,3,2,3,2C3,2,3,3.5,3,3.5C3,3.5,13,3.5,13,3.5C13,3.5,13,2,13,2C13,2,13,2,13,2Z" fill-rule="evenodd" fill="#7B899F" fill-opacity="1"/></g><g><path d="M2,6.5C2,5.947718,2.447718,5.5,3,5.5C3,5.5,13,5.5,13,5.5C13.5522,5.5,14,5.947692,14,6.5C14,6.5,14,13.9961,14,13.9961C14,14.54834,13.5522,14.9961,13,14.9961C13,14.9961,3,14.9961,3,14.9961C2.447692,14.9961,2,14.54832,2,13.9961C2,13.9961,2,6.5,2,6.5C2,6.5,2,6.5,2,6.5ZM13,6.5C13,6.5,3,6.5,3,6.5C3,6.5,3,13.9961,3,13.9961C3,13.9961,13,13.9961,13,13.9961C13,13.9961,13,6.5,13,6.5C13,6.5,13,6.5,13,6.5Z" fill-rule="evenodd" fill="#7B899F" fill-opacity="1"/></g><g><path d="M12,9.287779808044434C12,9.287779808044434,8,9.287779808044434,8,9.287779808044434C8,9.287779808044434,8,8.287779808044434,8,8.287779808044434C8,8.287779808044434,12,8.287779808044434,12,8.287779808044434C12,8.287779808044434,12,9.287779808044434,12,9.287779808044434C12,9.287779808044434,12,9.287779808044434,12,9.287779808044434Z" fill-rule="evenodd" fill="#7B899F" fill-opacity="1"/></g><g><path d="M12,12.388400077819824C12,12.388400077819824,8,12.388400077819824,8,12.388400077819824C8,12.388400077819824,8,11.388400077819824,8,11.388400077819824C8,11.388400077819824,12,11.388400077819824,12,11.388400077819824C12,11.388400077819824,12,12.388400077819824,12,12.388400077819824C12,12.388400077819824,12,12.388400077819824,12,12.388400077819824Z" fill-rule="evenodd" fill="#7B899F" fill-opacity="1"/></g><g><path d="M5.853576780700683,7.876856878204346C5.853576780700683,7.876856878204346,6.314326780700684,7.416061878204346,6.314326780700684,7.416061878204346C6.314326780700684,7.416061878204346,7.021466780700683,8.123137878204346,7.021466780700683,8.123137878204346C7.021466780700683,8.123137878204346,6.560696780700684,8.583951878204346,6.560696780700684,8.583951878204346C6.560696780700684,8.583951878204346,5.146466780700684,9.998181878204345,5.146466780700684,9.998181878204345C5.146466780700684,9.998181878204345,3.7321767807006836,8.583881878204346,3.7321767807006836,8.583881878204346C3.7321767807006836,8.583881878204346,4.439283780700683,7.876776878204346,4.439283780700683,7.876776878204346C4.439283780700683,7.876776878204346,5.146466780700684,8.583961878204345,5.146466780700684,8.583961878204345C5.146466780700684,8.583961878204345,5.853576780700683,7.876856878204346,5.853576780700683,7.876856878204346C5.853576780700683,7.876856878204346,5.853576780700683,7.876856878204346,5.853576780700683,7.876856878204346Z" fill-rule="evenodd" fill="#7B899F" fill-opacity="1"/></g><g><path d="M5.853566767120361,10.977453782958984C5.853566767120361,10.977453782958984,6.314336767120361,10.516658782958984,6.314336767120361,10.516658782958984C6.314336767120361,10.516658782958984,7.021466767120361,11.223742782958984,7.021466767120361,11.223742782958984C7.021466767120361,11.223742782958984,6.560696767120362,11.684538782958985,6.560696767120362,11.684538782958985C6.560696767120362,11.684538782958985,5.146466767120361,13.098818782958984,5.146466767120361,13.098818782958984C5.146466767120361,13.098818782958984,3.7321667671203613,11.684448782958984,3.7321667671203613,11.684448782958984C3.7321667671203613,11.684448782958984,4.439293767120361,10.977356782958985,4.439293767120361,10.977356782958985C4.439293767120361,10.977356782958985,5.146476767120362,11.684578782958985,5.146476767120362,11.684578782958985C5.146476767120362,11.684578782958985,5.853566767120361,10.977453782958984,5.853566767120361,10.977453782958984C5.853566767120361,10.977453782958984,5.853566767120361,10.977453782958984,5.853566767120361,10.977453782958984Z" fill-rule="evenodd" fill="#7B899F" fill-opacity="1"/></g></g></svg>