<svg xmlns="http://www.w3.org/2000/svg" xmlns:xlink="http://www.w3.org/1999/xlink" fill="none" version="1.1" width="16" height="16" viewBox="0 0 16 16"><defs><clipPath id="master_svg0_0_244"><rect x="0" y="0" width="16" height="16" rx="0"/></clipPath></defs><g clip-path="url(#master_svg0_0_244)"><g><path d="M3.737589907989502,6.677804921340942C3.737589907989502,6.677804921340942,7.501179907989502,2.9142149213409425,7.501179907989502,2.9142149213409425C7.501179907989502,2.9142149213409425,7.501199907989502,11.500004921340942,7.501199907989502,11.500004921340942C7.501199907989502,11.500004921340942,8.501199907989502,11.500004921340942,8.501199907989502,11.500004921340942C8.501199907989502,11.500004921340942,8.501179907989503,2.914224921340942,8.501179907989503,2.914224921340942C8.501179907989503,2.914224921340942,12.264799907989502,6.677804921340942,12.264799907989502,6.677804921340942C12.264799907989502,6.677804921340942,12.971899907989503,5.9706849213409425,12.971899907989503,5.9706849213409425C12.971899907989503,5.9706849213409425,8.354729907989501,1.3535499213409423,8.354729907989501,1.3535499213409423C8.159469907989502,1.1582899213409423,7.842889907989502,1.1582899213409423,7.647619907989502,1.3535499213409423C7.647619907989502,1.3535499213409423,3.030479907989502,5.970694921340942,3.030479907989502,5.970694921340942C3.030479907989502,5.970694921340942,3.737589907989502,6.677804921340942,3.737589907989502,6.677804921340942C3.737589907989502,6.677804921340942,3.737589907989502,6.677804921340942,3.737589907989502,6.677804921340942Z" fill="#7B899F" fill-opacity="1"/></g><g><path d="M2,9.999970436096191C2,9.999970436096191,2,13.000000436096192,2,13.000000436096192C2,13.552300436096191,2.44772,14.00000043609619,3,14.00000043609619C3,14.00000043609619,13,14.00000043609619,13,14.00000043609619C13.5523,14.00000043609619,14,13.552300436096191,14,13.000000436096192C14,13.000000436096192,14,9.999970436096191,14,9.999970436096191C14,9.999970436096191,13,9.999970436096191,13,9.999970436096191C13,9.999970436096191,13,13.000000436096192,13,13.000000436096192C13,13.000000436096192,3,13.000000436096192,3,13.000000436096192C3,13.000000436096192,3,9.999970436096191,3,9.999970436096191C3,9.999970436096191,2,9.999970436096191,2,9.999970436096191C2,9.999970436096191,2,9.999970436096191,2,9.999970436096191Z" fill="#7B899F" fill-opacity="1"/></g></g></svg>