<svg xmlns="http://www.w3.org/2000/svg" xmlns:xlink="http://www.w3.org/1999/xlink" fill="none" version="1.1" width="16" height="16" viewBox="0 0 16 16"><defs><clipPath id="master_svg0_0_154"><rect x="0" y="0" width="16" height="16" rx="0"/></clipPath></defs><g clip-path="url(#master_svg0_0_154)"><g><path d="M6.232537145767212,11.889100114593507C6.232537145767212,11.889100114593507,8.353857145767211,9.767760114593505,8.353857145767211,9.767760114593505C8.353857145767211,9.767760114593505,9.060957145767212,10.474900114593506,9.060957145767212,10.474900114593506C9.060957145767212,10.474900114593506,6.939637145767212,12.596200114593506,6.939637145767212,12.596200114593506C5.963327145767212,13.572500114593506,4.380417145767212,13.572500114593506,3.404110145767212,12.596200114593506C2.427799145767212,11.619900114593506,2.427799145767212,10.037000114593505,3.404110145767212,9.060660114593507C3.404110145767212,9.060660114593507,5.525427145767212,6.939340114593506,5.525427145767212,6.939340114593506C5.525427145767212,6.939340114593506,6.232527145767212,7.6464401145935055,6.232527145767212,7.6464401145935055C6.232527145767212,7.6464401145935055,4.111207145767212,9.767760114593505,4.111207145767212,9.767760114593505C3.525429145767212,10.353600114593506,3.525429145767212,11.303300114593505,4.111207145767212,11.889100114593507C4.696997145767211,12.474900114593506,5.646747145767212,12.474900114593506,6.232537145767212,11.889100114593507C6.232537145767212,11.889100114593507,6.232537145767212,11.889100114593507,6.232537145767212,11.889100114593507Z" fill="#7B899F" fill-opacity="1"/></g><g><path d="M10.475200045166016,9.06065720161438C10.475200045166016,9.06065720161438,9.768070045166017,8.35354720161438,9.768070045166017,8.35354720161438C9.768070045166017,8.35354720161438,11.889400045166017,6.23222720161438,11.889400045166017,6.23222720161438C12.475200045166016,5.64643720161438,12.475200045166016,4.69669720161438,11.889400045166017,4.1109072016143795C11.303600045166014,3.5251202016143797,10.353900045166016,3.5251202016143797,9.768070045166017,4.1109072016143795C9.768070045166017,4.1109072016143795,7.646750045166016,6.23222720161438,7.646750045166016,6.23222720161438C7.646750045166016,6.23222720161438,6.939640045166016,5.52511720161438,6.939640045166016,5.52511720161438C6.939640045166016,5.52511720161438,9.060960045166016,3.40380020161438,9.060960045166016,3.40380020161438C10.037300045166015,2.42748920161438,11.620200045166015,2.42748920161438,12.596500045166016,3.40380020161438C13.572800045166016,4.38010720161438,13.572800045166016,5.96302720161438,12.596500045166016,6.9393372016143795C12.596500045166016,6.9393372016143795,10.475200045166016,9.06065720161438,10.475200045166016,9.06065720161438C10.475200045166016,9.06065720161438,10.475200045166016,9.06065720161438,10.475200045166016,9.06065720161438Z" fill="#7B899F" fill-opacity="1"/></g><g><path d="M9.06110985748291,6.232250213623047C9.06110985748291,6.232250213623047,6.23268985748291,9.060680213623048,6.23268985748291,9.060680213623048C6.23268985748291,9.060680213623048,6.93978985748291,9.767780213623046,6.93978985748291,9.767780213623046C6.93978985748291,9.767780213623046,9.76821985748291,6.939360213623047,9.76821985748291,6.939360213623047C9.76821985748291,6.939360213623047,9.06110985748291,6.232250213623047,9.06110985748291,6.232250213623047C9.06110985748291,6.232250213623047,9.06110985748291,6.232250213623047,9.06110985748291,6.232250213623047Z" fill="#7B899F" fill-opacity="1"/></g></g></svg>