<svg xmlns="http://www.w3.org/2000/svg" xmlns:xlink="http://www.w3.org/1999/xlink" fill="none" version="1.1" width="16" height="16" viewBox="0 0 16 16"><defs><clipPath id="master_svg0_0_47"><rect x="0" y="0" width="16" height="16" rx="0"/></clipPath></defs><g clip-path="url(#master_svg0_0_47)"><g><path d="M11.05,7.740169242248536C11.25,7.855639242248535,11.25,8.144319242248535,11.05,8.259789242248536C11.05,8.259789242248536,5.95,11.204299242248535,5.95,11.204299242248535C5.75,11.319799242248536,5.5,11.175399242248535,5.5,10.944499242248536C5.5,10.944499242248536,5.5,5.055500242248535,5.5,5.055500242248535C5.5,4.824560242248535,5.75,4.680230242248535,5.95,4.795700242248535C5.95,4.795700242248535,11.05,7.740169242248536,11.05,7.740169242248536C11.05,7.740169242248536,11.05,7.740169242248536,11.05,7.740169242248536ZM6.5,6.267939242248535C6.5,6.267939242248535,6.5,9.732039242248536,6.5,9.732039242248536C6.5,9.732039242248536,9.5,7.999979242248536,9.5,7.999979242248536C9.5,7.999979242248536,6.5,6.267939242248535,6.5,6.267939242248535C6.5,6.267939242248535,6.5,6.267939242248535,6.5,6.267939242248535Z" fill="#7B899F" fill-opacity="1"/></g><g><path d="M2,3C2,2.44772,2.44772,2,3,2C3,2,13,2,13,2C13.5523,2,14,2.44772,14,3C14,3,14,13,14,13C14,13.5523,13.5523,14,13,14C13,14,3,14,3,14C2.44772,14,2,13.5523,2,13C2,13,2,3,2,3C2,3,2,3,2,3ZM3,3C3,3,3,13,3,13C3,13,13,13,13,13C13,13,13,3,13,3C13,3,3,3,3,3C3,3,3,3,3,3Z" fill="#7B899F" fill-opacity="1"/></g></g></svg>